<svg xmlns="http://www.w3.org/2000/svg" xmlns:xlink="http://www.w3.org/1999/xlink" width="2000" zoomAndPan="magnify" viewBox="0 0 1500 1499.999933" height="2000" preserveAspectRatio="xMidYMid meet" version="1.0"><defs><clipPath id="07171aea12"><path d="M 2 31 L 483 31 L 483 904 L 2 904 Z M 2 31 " clip-rule="nonzero"/></clipPath><clipPath id="9a468e3e74"><path d="M 2.464844 61.011719 L 61.414062 31.527344 L 482.863281 874.035156 L 423.914062 903.523438 Z M 2.464844 61.011719 " clip-rule="nonzero"/></clipPath><clipPath id="1a7af8d58f"><path d="M 0.359375 0.519531 L 481 0.519531 L 481 872.679688 L 0.359375 872.679688 Z M 0.359375 0.519531 " clip-rule="nonzero"/></clipPath><clipPath id="b9bc6d040f"><path d="M 0.464844 30.011719 L 59.414062 0.527344 L 480.863281 843.035156 L 421.914062 872.523438 Z M 0.464844 30.011719 " clip-rule="nonzero"/></clipPath><clipPath id="ca544be8cf"><rect x="0" width="481" y="0" height="873"/></clipPath><clipPath id="eaa38c5943"><path d="M 37.800781 9.867188 L 209.597656 9.867188 L 209.597656 77.742188 L 37.800781 77.742188 Z M 37.800781 9.867188 " clip-rule="nonzero"/></clipPath><clipPath id="a55c38e07a"><path d="M 0.800781 0.867188 L 172.597656 0.867188 L 172.597656 68.742188 L 0.800781 68.742188 Z M 0.800781 0.867188 " clip-rule="nonzero"/></clipPath><clipPath id="3a1a0d66a1"><rect x="0" width="173" y="0" height="69"/></clipPath><clipPath id="11404acd03"><path d="M 466.699219 654.65625 L 574.582031 654.65625 L 574.582031 927.769531 L 466.699219 927.769531 Z M 466.699219 654.65625 " clip-rule="nonzero"/></clipPath><clipPath id="872997a2af"><path d="M 0.699219 0.65625 L 108.582031 0.65625 L 108.582031 273.769531 L 0.699219 273.769531 Z M 0.699219 0.65625 " clip-rule="nonzero"/></clipPath><clipPath id="6e472fdf8c"><rect x="0" width="109" y="0" height="274"/></clipPath><clipPath id="377341a307"><path d="M 587.578125 160.144531 L 716.746094 160.144531 L 716.746094 273.777344 L 587.578125 273.777344 Z M 587.578125 160.144531 " clip-rule="nonzero"/></clipPath><clipPath id="f52cee21be"><path d="M 651.988281 160.144531 L 716.398438 273.777344 L 587.578125 273.777344 Z M 651.988281 160.144531 " clip-rule="nonzero"/></clipPath><clipPath id="8468285459"><path d="M 0.578125 0.144531 L 129.601562 0.144531 L 129.601562 113.777344 L 0.578125 113.777344 Z M 0.578125 0.144531 " clip-rule="nonzero"/></clipPath><clipPath id="60d8227fc5"><path d="M 64.988281 0.144531 L 129.398438 113.777344 L 0.578125 113.777344 Z M 64.988281 0.144531 " clip-rule="nonzero"/></clipPath><clipPath id="7e05f3feea"><rect x="0" width="130" y="0" height="114"/></clipPath><clipPath id="472aff9ed9"><path d="M 978.796875 9.871094 L 1053.546875 9.871094 L 1053.546875 84.621094 L 978.796875 84.621094 Z M 978.796875 9.871094 " clip-rule="nonzero"/></clipPath><clipPath id="8d3358a7c6"><path d="M 1016.171875 9.871094 C 995.527344 9.871094 978.796875 26.605469 978.796875 47.246094 C 978.796875 67.886719 995.527344 84.621094 1016.171875 84.621094 C 1036.8125 84.621094 1053.546875 67.886719 1053.546875 47.246094 C 1053.546875 26.605469 1036.8125 9.871094 1016.171875 9.871094 Z M 1016.171875 9.871094 " clip-rule="nonzero"/></clipPath><clipPath id="af9b879708"><path d="M 0.796875 0.871094 L 75.546875 0.871094 L 75.546875 75.621094 L 0.796875 75.621094 Z M 0.796875 0.871094 " clip-rule="nonzero"/></clipPath><clipPath id="c0bd3c1541"><path d="M 38.171875 0.871094 C 17.527344 0.871094 0.796875 17.605469 0.796875 38.246094 C 0.796875 58.886719 17.527344 75.621094 38.171875 75.621094 C 58.8125 75.621094 75.546875 58.886719 75.546875 38.246094 C 75.546875 17.605469 58.8125 0.871094 38.171875 0.871094 Z M 38.171875 0.871094 " clip-rule="nonzero"/></clipPath><clipPath id="63455994bf"><rect x="0" width="76" y="0" height="76"/></clipPath><clipPath id="414feef5fa"><path d="M 201 9 L 260 9 L 260 58 L 201 58 Z M 201 9 " clip-rule="nonzero"/></clipPath><clipPath id="620bd21b4d"><path d="M 248.847656 0.0625 L 259.378906 47.207031 L 212.046875 57.777344 L 201.519531 10.632812 Z M 248.847656 0.0625 " clip-rule="nonzero"/></clipPath><clipPath id="236da04c1f"><path d="M 201.519531 10.632812 C 213.9375 7.859375 227.199219 10.175781 237.941406 16.996094 C 248.679688 23.816406 256.421875 34.832031 259.191406 47.25 L 212.046875 57.777344 Z M 201.519531 10.632812 " clip-rule="nonzero"/></clipPath><clipPath id="04ae388a11"><path d="M 0.320312 0 L 58.398438 0 L 58.398438 48.921875 L 0.320312 48.921875 Z M 0.320312 0 " clip-rule="nonzero"/></clipPath><clipPath id="ac0dbef76e"><path d="M 47.847656 -8.9375 L 58.378906 38.207031 L 11.046875 48.777344 L 0.519531 1.632812 Z M 47.847656 -8.9375 " clip-rule="nonzero"/></clipPath><clipPath id="9db58671f0"><path d="M 0.519531 1.632812 C 12.9375 -1.140625 26.199219 1.175781 36.941406 7.996094 C 47.679688 14.816406 55.421875 25.832031 58.191406 38.25 L 11.046875 48.777344 Z M 0.519531 1.632812 " clip-rule="nonzero"/></clipPath><clipPath id="dda367cd5e"><rect x="0" width="59" y="0" height="49"/></clipPath><clipPath id="31bcfaf595"><path d="M 568 877 L 627 877 L 627 929 L 568 929 Z M 568 877 " clip-rule="nonzero"/></clipPath><clipPath id="e81ebb70c1"><path d="M 618.035156 935.917969 L 568.089844 927.898438 L 576.136719 877.757812 L 626.085938 885.773438 Z M 618.035156 935.917969 " clip-rule="nonzero"/></clipPath><clipPath id="8256077a1c"><path d="M 626.085938 885.773438 C 623.972656 898.929688 616.582031 910.9375 605.785156 918.742188 C 594.992188 926.550781 581.273438 929.816406 568.121094 927.703125 L 576.136719 877.757812 Z M 626.085938 885.773438 " clip-rule="nonzero"/></clipPath><clipPath id="b220936ef5"><path d="M 0.0390625 0.519531 L 58.121094 0.519531 L 58.121094 52 L 0.0390625 52 Z M 0.0390625 0.519531 " clip-rule="nonzero"/></clipPath><clipPath id="a8dfadac9e"><path d="M 50.035156 58.917969 L 0.0898438 50.898438 L 8.136719 0.757812 L 58.085938 8.773438 Z M 50.035156 58.917969 " clip-rule="nonzero"/></clipPath><clipPath id="b6d272fcd5"><path d="M 58.085938 8.773438 C 55.972656 21.929688 48.582031 33.9375 37.785156 41.742188 C 26.992188 49.550781 13.273438 52.816406 0.121094 50.703125 L 8.136719 0.757812 Z M 58.085938 8.773438 " clip-rule="nonzero"/></clipPath><clipPath id="59b9cb8d78"><rect x="0" width="59" y="0" height="52"/></clipPath><clipPath id="c06d353245"><path d="M 420 880 L 481 880 L 481 928 L 420 928 Z M 420 880 " clip-rule="nonzero"/></clipPath><clipPath id="4cc3c5394b"><path d="M 436.289062 939.949219 L 420.808594 896.359375 L 464.570312 880.824219 L 480.046875 924.410156 Z M 436.289062 939.949219 " clip-rule="nonzero"/></clipPath><clipPath id="15354439d4"><path d="M 480.046875 924.410156 C 468.566406 928.488281 455.691406 927.824219 444.691406 922.589844 C 433.691406 917.355469 425.054688 907.78125 420.980469 896.300781 L 464.570312 880.824219 Z M 480.046875 924.410156 " clip-rule="nonzero"/></clipPath><clipPath id="c4fc7c78e6"><path d="M 0.921875 0.640625 L 60.199219 0.640625 L 60.199219 48 L 0.921875 48 Z M 0.921875 0.640625 " clip-rule="nonzero"/></clipPath><clipPath id="aa750874c2"><path d="M 16.289062 59.949219 L 0.808594 16.359375 L 44.570312 0.824219 L 60.046875 44.410156 Z M 16.289062 59.949219 " clip-rule="nonzero"/></clipPath><clipPath id="24a4daa261"><path d="M 60.046875 44.410156 C 48.566406 48.488281 35.691406 47.824219 24.691406 42.589844 C 13.691406 37.355469 5.054688 27.78125 0.980469 16.300781 L 44.570312 0.824219 Z M 60.046875 44.410156 " clip-rule="nonzero"/></clipPath><clipPath id="0c1b9fbec2"><rect x="0" width="61" y="0" height="48"/></clipPath><clipPath id="783a67f520"><path d="M 0.453125 9.871094 L 75.203125 9.871094 L 75.203125 87.25 L 0.453125 87.25 Z M 0.453125 9.871094 " clip-rule="nonzero"/></clipPath><clipPath id="0da30b3ed9"><path d="M 37.828125 9.871094 C 17.1875 9.871094 0.453125 27.136719 0.453125 48.4375 C 0.453125 69.738281 17.1875 87.007812 37.828125 87.007812 C 58.472656 87.007812 75.203125 69.738281 75.203125 48.4375 C 75.203125 27.136719 58.472656 9.871094 37.828125 9.871094 Z M 37.828125 9.871094 " clip-rule="nonzero"/></clipPath><clipPath id="22f25f4038"><path d="M 0.453125 0.871094 L 75.203125 0.871094 L 75.203125 78 L 0.453125 78 Z M 0.453125 0.871094 " clip-rule="nonzero"/></clipPath><clipPath id="593eb8ef20"><path d="M 37.828125 0.871094 C 17.1875 0.871094 0.453125 18.136719 0.453125 39.4375 C 0.453125 60.738281 17.1875 78.007812 37.828125 78.007812 C 58.472656 78.007812 75.203125 60.738281 75.203125 39.4375 C 75.203125 18.136719 58.472656 0.871094 37.828125 0.871094 Z M 37.828125 0.871094 " clip-rule="nonzero"/></clipPath><clipPath id="5f2d12e56e"><rect x="0" width="76" y="0" height="79"/></clipPath><clipPath id="b9477b2c8d"><path d="M 198 42 L 598 42 L 598 776 L 198 776 Z M 198 42 " clip-rule="nonzero"/></clipPath><clipPath id="f1de40a45a"><path d="M 198.425781 71.039062 L 257.8125 42.4375 L 597.125 746.996094 L 537.738281 775.59375 Z M 198.425781 71.039062 " clip-rule="nonzero"/></clipPath><clipPath id="03fc6fb640"><path d="M 0.199219 0.320312 L 399.320312 0.320312 L 399.320312 733.761719 L 0.199219 733.761719 Z M 0.199219 0.320312 " clip-rule="nonzero"/></clipPath><clipPath id="3b00129fcb"><path d="M 0.425781 29.039062 L 59.8125 0.4375 L 399.125 704.996094 L 339.738281 733.59375 Z M 0.425781 29.039062 " clip-rule="nonzero"/></clipPath><clipPath id="e952766120"><rect x="0" width="400" y="0" height="734"/></clipPath><clipPath id="0d2bae267a"><path d="M 504 17 L 998 17 L 998 733 L 504 733 Z M 504 17 " clip-rule="nonzero"/></clipPath><clipPath id="26f8c7352a"><path d="M 942.320312 17.320312 L 997.738281 53.007812 L 560.0625 732.726562 L 504.644531 697.042969 Z M 942.320312 17.320312 " clip-rule="nonzero"/></clipPath><clipPath id="d0780aa021"><path d="M 0.441406 0.121094 L 493.878906 0.121094 L 493.878906 715.800781 L 0.441406 715.800781 Z M 0.441406 0.121094 " clip-rule="nonzero"/></clipPath><clipPath id="0dfff30772"><path d="M 438.320312 0.320312 L 493.738281 36.007812 L 56.0625 715.726562 L 0.644531 680.042969 Z M 438.320312 0.320312 " clip-rule="nonzero"/></clipPath><clipPath id="2f50858fee"><rect x="0" width="494" y="0" height="716"/></clipPath><clipPath id="83670cfe12"><path d="M 760.761719 9.863281 L 1016.148438 9.863281 L 1016.148438 124.328125 L 760.761719 124.328125 Z M 760.761719 9.863281 " clip-rule="nonzero"/></clipPath><clipPath id="1300ba2f0d"><path d="M 0.761719 0.863281 L 256.148438 0.863281 L 256.148438 115.328125 L 0.761719 115.328125 Z M 0.761719 0.863281 " clip-rule="nonzero"/></clipPath><clipPath id="820eb64e43"><rect x="0" width="257" y="0" height="116"/></clipPath><clipPath id="734694e24b"><path d="M 501 9 L 1045 9 L 1045 892 L 501 892 Z M 501 9 " clip-rule="nonzero"/></clipPath><clipPath id="84cb62b1fc"><path d="M 921.894531 9.871094 L 1044.011719 72.535156 L 623.53125 891.972656 L 501.414062 829.308594 Z M 921.894531 9.871094 " clip-rule="nonzero"/></clipPath><clipPath id="0bb8857dac"><path d="M 0.320312 0.679688 L 543.199219 0.679688 L 543.199219 883 L 0.320312 883 Z M 0.320312 0.679688 " clip-rule="nonzero"/></clipPath><clipPath id="0111990ddd"><path d="M 420.894531 0.871094 L 543.011719 63.535156 L 122.53125 882.972656 L 0.414062 820.308594 Z M 420.894531 0.871094 " clip-rule="nonzero"/></clipPath><clipPath id="49e6ef257f"><rect x="0" width="544" y="0" height="883"/></clipPath><clipPath id="50ae102080"><path d="M 611 31 L 779 31 L 779 263 L 611 263 Z M 611 31 " clip-rule="nonzero"/></clipPath><clipPath id="1a67d1f84c"><path d="M 721.078125 31.527344 L 778.898438 63.171875 L 669.632812 262.816406 L 611.8125 231.171875 Z M 721.078125 31.527344 " clip-rule="nonzero"/></clipPath><clipPath id="52dc9d73e4"><path d="M 0.71875 0.519531 L 168 0.519531 L 168 231.878906 L 0.71875 231.878906 Z M 0.71875 0.519531 " clip-rule="nonzero"/></clipPath><clipPath id="6c1de017b5"><path d="M 110.078125 0.527344 L 167.898438 32.171875 L 58.632812 231.816406 L 0.8125 200.171875 Z M 110.078125 0.527344 " clip-rule="nonzero"/></clipPath><clipPath id="1599788eb6"><rect x="0" width="168" y="0" height="232"/></clipPath><clipPath id="f79132065b"><path d="M 625.160156 207.863281 L 852.75 207.863281 L 852.75 273.773438 L 625.160156 273.773438 Z M 625.160156 207.863281 " clip-rule="nonzero"/></clipPath><clipPath id="3455cb97b4"><path d="M 0.160156 0.863281 L 227.75 0.863281 L 227.75 66.773438 L 0.160156 66.773438 Z M 0.160156 0.863281 " clip-rule="nonzero"/></clipPath><clipPath id="89daaf96a1"><rect x="0" width="228" y="0" height="67"/></clipPath><clipPath id="1b0b79b9c2"><path d="M 718.734375 9.871094 L 793.488281 9.871094 L 793.488281 84.621094 L 718.734375 84.621094 Z M 718.734375 9.871094 " clip-rule="nonzero"/></clipPath><clipPath id="6df7056ad0"><path d="M 756.109375 9.871094 C 735.46875 9.871094 718.734375 26.605469 718.734375 47.246094 C 718.734375 67.886719 735.46875 84.621094 756.109375 84.621094 C 776.753906 84.621094 793.488281 67.886719 793.488281 47.246094 C 793.488281 26.605469 776.753906 9.871094 756.109375 9.871094 Z M 756.109375 9.871094 " clip-rule="nonzero"/></clipPath><clipPath id="04071f8197"><path d="M 0.734375 0.871094 L 75.488281 0.871094 L 75.488281 75.621094 L 0.734375 75.621094 Z M 0.734375 0.871094 " clip-rule="nonzero"/></clipPath><clipPath id="29bf49afd0"><path d="M 38.109375 0.871094 C 17.46875 0.871094 0.734375 17.605469 0.734375 38.246094 C 0.734375 58.886719 17.46875 75.621094 38.109375 75.621094 C 58.753906 75.621094 75.488281 58.886719 75.488281 38.246094 C 75.488281 17.605469 58.753906 0.871094 38.109375 0.871094 Z M 38.109375 0.871094 " clip-rule="nonzero"/></clipPath><clipPath id="44827239d2"><rect x="0" width="76" y="0" height="76"/></clipPath><clipPath id="005aea0440"><path d="M 695.339844 87.023438 L 945.09375 87.023438 L 945.09375 223.375 L 695.339844 223.375 Z M 695.339844 87.023438 " clip-rule="nonzero"/></clipPath><clipPath id="ae53562521"><path d="M 0.339844 0.0234375 L 250.09375 0.0234375 L 250.09375 136.375 L 0.339844 136.375 Z M 0.339844 0.0234375 " clip-rule="nonzero"/></clipPath><clipPath id="3c67c4b9cc"><rect x="0" width="251" y="0" height="137"/></clipPath><clipPath id="00b193d5c0"><path d="M 532.0625 751.953125 L 611.773438 751.953125 L 611.773438 903.523438 L 532.0625 903.523438 Z M 532.0625 751.953125 " clip-rule="nonzero"/></clipPath><clipPath id="6fd4d431ba"><path d="M 0.0625 0.953125 L 79.773438 0.953125 L 79.773438 152.523438 L 0.0625 152.523438 Z M 0.0625 0.953125 " clip-rule="nonzero"/></clipPath><clipPath id="aaab068f61"><rect x="0" width="80" y="0" height="153"/></clipPath><clipPath id="b719323067"><path d="M 442.960938 755.1875 L 522.671875 755.1875 L 522.671875 906.757812 L 442.960938 906.757812 Z M 442.960938 755.1875 " clip-rule="nonzero"/></clipPath><clipPath id="3781136557"><path d="M 0.960938 0.1875 L 80.671875 0.1875 L 80.671875 151.757812 L 0.960938 151.757812 Z M 0.960938 0.1875 " clip-rule="nonzero"/></clipPath><clipPath id="769d014014"><rect x="0" width="81" y="0" height="152"/></clipPath><clipPath id="8f0247902a"><path d="M 60 13 L 605 13 L 605 899 L 60 899 Z M 60 13 " clip-rule="nonzero"/></clipPath><clipPath id="4a38f85485"><path d="M 60.515625 81.101562 L 195.867188 13.394531 L 604.800781 830.886719 L 469.453125 898.589844 Z M 60.515625 81.101562 " clip-rule="nonzero"/></clipPath><clipPath id="17c96c0369"><path d="M 0.441406 0.28125 L 545 0.28125 L 545 885.640625 L 0.441406 885.640625 Z M 0.441406 0.28125 " clip-rule="nonzero"/></clipPath><clipPath id="db268f9d34"><path d="M 0.515625 68.101562 L 135.867188 0.394531 L 544.800781 817.886719 L 409.453125 885.589844 Z M 0.515625 68.101562 " clip-rule="nonzero"/></clipPath><clipPath id="88233b3271"><rect x="0" width="545" y="0" height="886"/></clipPath><clipPath id="6cb56b0414"><path d="M 75.175781 33.160156 L 246.972656 33.160156 L 246.972656 101.039062 L 75.175781 101.039062 Z M 75.175781 33.160156 " clip-rule="nonzero"/></clipPath><clipPath id="b82c507a51"><path d="M 0.175781 0.160156 L 171.972656 0.160156 L 171.972656 68.039062 L 0.175781 68.039062 Z M 0.175781 0.160156 " clip-rule="nonzero"/></clipPath><clipPath id="b574f551a8"><rect x="0" width="172" y="0" height="69"/></clipPath><clipPath id="c8e7afe444"><rect x="0" width="1054" y="0" height="940"/></clipPath></defs><g transform="matrix(1, 0, 0, 1, 223, 280)"><g clip-path="url(#c8e7afe444)"><g clip-path="url(#07171aea12)"><g clip-path="url(#9a468e3e74)"><g transform="matrix(1, 0, 0, 1, 2, 31)"><g clip-path="url(#ca544be8cf)"><g clip-path="url(#1a7af8d58f)"><g clip-path="url(#b9bc6d040f)"><path fill="#faf7ef" d="M 0.464844 30.011719 L 59.414062 0.527344 L 480.886719 843.082031 L 421.9375 872.570312 Z M 0.464844 30.011719 " fill-opacity="1" fill-rule="nonzero"/></g></g></g></g></g></g><g clip-path="url(#eaa38c5943)"><g transform="matrix(1, 0, 0, 1, 37, 9)"><g clip-path="url(#3a1a0d66a1)"><g clip-path="url(#a55c38e07a)"><path fill="#faf7ef" d="M 172.597656 0.867188 L 172.597656 68.742188 L 0.785156 68.742188 L 0.785156 0.867188 Z M 172.597656 0.867188 " fill-opacity="1" fill-rule="nonzero"/></g></g></g></g><g clip-path="url(#11404acd03)"><g transform="matrix(1, 0, 0, 1, 466, 654)"><g clip-path="url(#6e472fdf8c)"><g clip-path="url(#872997a2af)"><path fill="#faf7ef" d="M 108.582031 0.65625 L 108.582031 273.734375 L 0.699219 273.734375 L 0.699219 0.65625 Z M 108.582031 0.65625 " fill-opacity="1" fill-rule="nonzero"/></g></g></g></g><g clip-path="url(#377341a307)"><g clip-path="url(#f52cee21be)"><g transform="matrix(1, 0, 0, 1, 587, 160)"><g clip-path="url(#7e05f3feea)"><g clip-path="url(#8468285459)"><g clip-path="url(#60d8227fc5)"><path fill="#faf7ef" d="M 0.578125 0.144531 L 129.304688 0.144531 L 129.304688 113.777344 L 0.578125 113.777344 Z M 0.578125 0.144531 " fill-opacity="1" fill-rule="nonzero"/></g></g></g></g></g></g><g clip-path="url(#472aff9ed9)"><g clip-path="url(#8d3358a7c6)"><g transform="matrix(1, 0, 0, 1, 978, 9)"><g clip-path="url(#63455994bf)"><g clip-path="url(#af9b879708)"><g clip-path="url(#c0bd3c1541)"><path fill="#faf7ef" d="M 0.796875 0.871094 L 75.546875 0.871094 L 75.546875 75.621094 L 0.796875 75.621094 Z M 0.796875 0.871094 " fill-opacity="1" fill-rule="nonzero"/></g></g></g></g></g></g><g clip-path="url(#414feef5fa)"><g clip-path="url(#620bd21b4d)"><g clip-path="url(#236da04c1f)"><g transform="matrix(1, 0, 0, 1, 201, 9)"><g clip-path="url(#dda367cd5e)"><g clip-path="url(#04ae388a11)"><g clip-path="url(#ac0dbef76e)"><g clip-path="url(#9db58671f0)"><path fill="#faf7ef" d="M 47.664062 -8.894531 L 58.191406 38.25 L 11.046875 48.777344 L 0.519531 1.632812 Z M 47.664062 -8.894531 " fill-opacity="1" fill-rule="nonzero"/></g></g></g></g></g></g></g></g><g clip-path="url(#31bcfaf595)"><g clip-path="url(#e81ebb70c1)"><g clip-path="url(#8256077a1c)"><g transform="matrix(1, 0, 0, 1, 568, 877)"><g clip-path="url(#59b9cb8d78)"><g clip-path="url(#b220936ef5)"><g clip-path="url(#a8dfadac9e)"><g clip-path="url(#b6d272fcd5)"><path fill="#faf7ef" d="M 50.066406 58.722656 L 0.121094 50.703125 L 8.136719 0.757812 L 58.085938 8.773438 Z M 50.066406 58.722656 " fill-opacity="1" fill-rule="nonzero"/></g></g></g></g></g></g></g></g><g clip-path="url(#c06d353245)"><g clip-path="url(#4cc3c5394b)"><g clip-path="url(#15354439d4)"><g transform="matrix(1, 0, 0, 1, 420, 880)"><g clip-path="url(#0c1b9fbec2)"><g clip-path="url(#c4fc7c78e6)"><g clip-path="url(#aa750874c2)"><g clip-path="url(#24a4daa261)"><path fill="#faf7ef" d="M 16.457031 59.890625 L 0.980469 16.300781 L 44.570312 0.824219 L 60.046875 44.410156 Z M 16.457031 59.890625 " fill-opacity="1" fill-rule="nonzero"/></g></g></g></g></g></g></g></g><g clip-path="url(#783a67f520)"><g clip-path="url(#0da30b3ed9)"><g transform="matrix(1, 0, 0, 1, -0.000000000000028422, 9)"><g clip-path="url(#5f2d12e56e)"><g clip-path="url(#22f25f4038)"><g clip-path="url(#593eb8ef20)"><path fill="#faf7ef" d="M 0.453125 0.871094 L 75.203125 0.871094 L 75.203125 77.957031 L 0.453125 77.957031 Z M 0.453125 0.871094 " fill-opacity="1" fill-rule="nonzero"/></g></g></g></g></g></g><g clip-path="url(#b9477b2c8d)"><g clip-path="url(#f1de40a45a)"><g transform="matrix(1, 0, 0, 1, 198, 42)"><g clip-path="url(#e952766120)"><g clip-path="url(#03fc6fb640)"><g clip-path="url(#3b00129fcb)"><path fill="#faf7ef" d="M 0.425781 29.039062 L 59.8125 0.4375 L 399.097656 704.941406 L 339.714844 733.539062 Z M 0.425781 29.039062 " fill-opacity="1" fill-rule="nonzero"/></g></g></g></g></g></g><g clip-path="url(#0d2bae267a)"><g clip-path="url(#26f8c7352a)"><g transform="matrix(1, 0, 0, 1, 504, 17)"><g clip-path="url(#2f50858fee)"><g clip-path="url(#d0780aa021)"><g clip-path="url(#0dfff30772)"><path fill="#faf7ef" d="M 438.320312 0.320312 L 493.738281 36.007812 L 56.050781 715.746094 L 0.632812 680.0625 Z M 438.320312 0.320312 " fill-opacity="1" fill-rule="nonzero"/></g></g></g></g></g></g><g clip-path="url(#83670cfe12)"><g transform="matrix(1, 0, 0, 1, 760, 9)"><g clip-path="url(#820eb64e43)"><g clip-path="url(#1300ba2f0d)"><path fill="#faf7ef" d="M 256.148438 0.863281 L 256.148438 115.328125 L 0.832031 115.328125 L 0.832031 0.863281 Z M 256.148438 0.863281 " fill-opacity="1" fill-rule="nonzero"/></g></g></g></g><g clip-path="url(#734694e24b)"><g clip-path="url(#84cb62b1fc)"><g transform="matrix(1, 0, 0, 1, 501, 9)"><g clip-path="url(#49e6ef257f)"><g clip-path="url(#0bb8857dac)"><g clip-path="url(#0111990ddd)"><path fill="#faf7ef" d="M 420.894531 0.871094 L 543.011719 63.535156 L 122.484375 883.066406 L 0.367188 820.402344 Z M 420.894531 0.871094 " fill-opacity="1" fill-rule="nonzero"/></g></g></g></g></g></g><g clip-path="url(#50ae102080)"><g clip-path="url(#1a67d1f84c)"><g transform="matrix(1, 0, 0, 1, 611, 31)"><g clip-path="url(#1599788eb6)"><g clip-path="url(#52dc9d73e4)"><g clip-path="url(#6c1de017b5)"><path fill="#faf7ef" d="M 110.078125 0.527344 L 167.898438 32.171875 L 58.621094 231.832031 L 0.804688 200.1875 Z M 110.078125 0.527344 " fill-opacity="1" fill-rule="nonzero"/></g></g></g></g></g></g><g clip-path="url(#f79132065b)"><g transform="matrix(1, 0, 0, 1, 625, 207)"><g clip-path="url(#89daaf96a1)"><g clip-path="url(#3455cb97b4)"><path fill="#faf7ef" d="M 227.75 0.863281 L 227.75 66.773438 L 0.144531 66.773438 L 0.144531 0.863281 Z M 227.75 0.863281 " fill-opacity="1" fill-rule="nonzero"/></g></g></g></g><g clip-path="url(#1b0b79b9c2)"><g clip-path="url(#6df7056ad0)"><g transform="matrix(1, 0, 0, 1, 718, 9)"><g clip-path="url(#44827239d2)"><g clip-path="url(#04071f8197)"><g clip-path="url(#29bf49afd0)"><path fill="#faf7ef" d="M 0.734375 0.871094 L 75.488281 0.871094 L 75.488281 75.621094 L 0.734375 75.621094 Z M 0.734375 0.871094 " fill-opacity="1" fill-rule="nonzero"/></g></g></g></g></g></g><g clip-path="url(#005aea0440)"><g transform="matrix(1, 0, 0, 1, 695, 87)"><g clip-path="url(#3c67c4b9cc)"><g clip-path="url(#ae53562521)"><path fill="#faf7ef" d="M 250.09375 0.0234375 L 250.09375 136.375 L 0.292969 136.375 L 0.292969 0.0234375 Z M 250.09375 0.0234375 " fill-opacity="1" fill-rule="nonzero"/></g></g></g></g><g clip-path="url(#00b193d5c0)"><g transform="matrix(1, 0, 0, 1, 532, 751)"><g clip-path="url(#aaab068f61)"><g clip-path="url(#6fd4d431ba)"><path fill="#faf7ef" d="M 79.773438 0.953125 L 79.773438 152.589844 L 0.0625 152.589844 L 0.0625 0.953125 Z M 79.773438 0.953125 " fill-opacity="1" fill-rule="nonzero"/></g></g></g></g><g clip-path="url(#b719323067)"><g transform="matrix(1, 0, 0, 1, 442, 755)"><g clip-path="url(#769d014014)"><g clip-path="url(#3781136557)"><path fill="#faf7ef" d="M 80.671875 0.1875 L 80.671875 151.824219 L 0.960938 151.824219 L 0.960938 0.1875 Z M 80.671875 0.1875 " fill-opacity="1" fill-rule="nonzero"/></g></g></g></g><g clip-path="url(#8f0247902a)"><g clip-path="url(#4a38f85485)"><g transform="matrix(1, 0, 0, 1, 60, 13)"><g clip-path="url(#88233b3271)"><g clip-path="url(#17c96c0369)"><g clip-path="url(#db268f9d34)"><path fill="#faf7ef" d="M 0.515625 68.101562 L 135.867188 0.394531 L 544.746094 817.773438 L 409.398438 885.480469 Z M 0.515625 68.101562 " fill-opacity="1" fill-rule="nonzero"/></g></g></g></g></g></g><g clip-path="url(#6cb56b0414)"><g transform="matrix(1, 0, 0, 1, 75, 33)"><g clip-path="url(#b574f551a8)"><g clip-path="url(#b82c507a51)"><path fill="#faf7ef" d="M 171.972656 0.160156 L 171.972656 68.039062 L 0.160156 68.039062 L 0.160156 0.160156 Z M 171.972656 0.160156 " fill-opacity="1" fill-rule="nonzero"/></g></g></g></g></g></g></svg>