<svg xmlns="http://www.w3.org/2000/svg" xmlns:xlink="http://www.w3.org/1999/xlink" width="2000" zoomAndPan="magnify" viewBox="0 0 1500 1499.999933" height="2000" preserveAspectRatio="xMidYMid meet" version="1.0"><defs><clipPath id="3fa990e852"><path d="M 126 126 L 1374 126 L 1374 1374.539062 L 126 1374.539062 Z M 126 126 " clip-rule="nonzero"/></clipPath></defs><g clip-path="url(#3fa990e852)"><path fill="#ffffff" d="M 126.667969 750.289062 C 126.667969 405.710938 405.871094 126.375 750.289062 126.375 C 1094.707031 126.375 1373.910156 405.710938 1373.910156 750.289062 C 1373.910156 1094.863281 1094.707031 1374.203125 750.289062 1374.203125 C 405.871094 1374.203125 126.667969 1094.863281 126.667969 750.289062 Z M 126.667969 750.289062 " fill-opacity="1" fill-rule="evenodd"/></g><path fill="#000000" d="M 541.050781 294.117188 L 967.707031 294.117188 L 967.707031 533.746094 L 541.050781 533.746094 Z M 541.050781 294.117188 " fill-opacity="1" fill-rule="nonzero"/><path fill="#000000" d="M 1087.523438 413.929688 C 1087.523438 480.101562 1033.882812 533.746094 967.707031 533.746094 C 901.535156 533.746094 847.894531 480.101562 847.894531 413.929688 C 847.894531 347.757812 901.535156 294.117188 967.707031 294.117188 C 1033.882812 294.117188 1087.523438 347.757812 1087.523438 413.929688 Z M 1087.523438 413.929688 " fill-opacity="1" fill-rule="evenodd"/><path fill="#000000" d="M 527.609375 631.933594 L 967.707031 631.933594 L 967.707031 871.5625 L 527.609375 871.5625 Z M 527.609375 631.933594 " fill-opacity="1" fill-rule="nonzero"/><path fill="#000000" d="M 652.683594 751.75 C 652.683594 817.921875 598.90625 871.5625 532.578125 871.5625 C 466.246094 871.5625 412.46875 817.921875 412.46875 751.75 C 412.46875 685.578125 466.246094 631.933594 532.578125 631.933594 C 598.90625 631.933594 652.683594 685.578125 652.683594 751.75 Z M 652.683594 751.75 " fill-opacity="1" fill-rule="evenodd"/><path fill="#000000" d="M 1088.105469 751.75 C 1088.105469 817.921875 1034.332031 871.5625 968 871.5625 C 901.667969 871.5625 847.894531 817.921875 847.894531 751.75 C 847.894531 685.578125 901.667969 631.933594 968 631.933594 C 1034.332031 631.933594 1088.105469 685.578125 1088.105469 751.75 Z M 1088.105469 751.75 " fill-opacity="1" fill-rule="evenodd"/><path fill="#000000" d="M 527.609375 966.832031 L 967.707031 966.832031 L 967.707031 1206.460938 L 527.609375 1206.460938 Z M 527.609375 966.832031 " fill-opacity="1" fill-rule="nonzero"/><path fill="#000000" d="M 652.683594 1086.644531 C 652.683594 1152.820312 598.90625 1206.460938 532.578125 1206.460938 C 466.246094 1206.460938 412.46875 1152.820312 412.46875 1086.644531 C 412.46875 1020.472656 466.246094 966.832031 532.578125 966.832031 C 598.90625 966.832031 652.683594 1020.472656 652.683594 1086.644531 Z M 652.683594 1086.644531 " fill-opacity="1" fill-rule="evenodd"/><path fill="#000000" d="M 1087.523438 1086.644531 C 1087.523438 1152.820312 1033.882812 1206.460938 967.707031 1206.460938 C 901.535156 1206.460938 847.894531 1152.820312 847.894531 1086.644531 C 847.894531 1020.472656 901.535156 966.832031 967.707031 966.832031 C 1033.882812 966.832031 1087.523438 1020.472656 1087.523438 1086.644531 Z M 1087.523438 1086.644531 " fill-opacity="1" fill-rule="evenodd"/><path fill="#000000" d="M 652.683594 413.929688 C 652.683594 480.101562 598.90625 533.746094 532.578125 533.746094 C 466.246094 533.746094 412.46875 480.101562 412.46875 413.929688 C 412.46875 347.757812 466.246094 294.117188 532.578125 294.117188 C 598.90625 294.117188 652.683594 347.757812 652.683594 413.929688 Z M 652.683594 413.929688 " fill-opacity="1" fill-rule="evenodd"/></svg>