<svg xmlns="http://www.w3.org/2000/svg" xmlns:xlink="http://www.w3.org/1999/xlink" width="2000" zoomAndPan="magnify" viewBox="0 0 1500 607.92" height="800" preserveAspectRatio="xMidYMid meet" version="1.0"><defs><g/><clipPath id="2ad08cf7be"><path d="M 1 70 L 176 70 L 176 387 L 1 387 Z M 1 70 " clip-rule="nonzero"/></clipPath><clipPath id="9dbe832362"><path d="M 1.363281 80.757812 L 22.785156 70.042969 L 175.925781 376.1875 L 154.507812 386.902344 Z M 1.363281 80.757812 " clip-rule="nonzero"/></clipPath><clipPath id="53c0a2c89a"><path d="M 0.320312 0 L 175 0 L 175 317 L 0.320312 317 Z M 0.320312 0 " clip-rule="nonzero"/></clipPath><clipPath id="99e8a01f04"><path d="M 0.363281 10.757812 L 21.785156 0.0429688 L 174.925781 306.1875 L 153.507812 316.902344 Z M 0.363281 10.757812 " clip-rule="nonzero"/></clipPath><clipPath id="d068fc0d81"><rect x="0" width="175" y="0" height="317"/></clipPath><clipPath id="c5ec86fd87"><path d="M 14.203125 62.171875 L 76.628906 62.171875 L 76.628906 86.835938 L 14.203125 86.835938 Z M 14.203125 62.171875 " clip-rule="nonzero"/></clipPath><clipPath id="d738e2f93f"><path d="M 0.203125 0.171875 L 62.628906 0.171875 L 62.628906 24.835938 L 0.203125 24.835938 Z M 0.203125 0.171875 " clip-rule="nonzero"/></clipPath><clipPath id="e445718626"><rect x="0" width="63" y="0" height="25"/></clipPath><clipPath id="a152008233"><path d="M 170.054688 296.46875 L 209.257812 296.46875 L 209.257812 395.714844 L 170.054688 395.714844 Z M 170.054688 296.46875 " clip-rule="nonzero"/></clipPath><clipPath id="967884c771"><path d="M 0.0546875 0.46875 L 39.257812 0.46875 L 39.257812 99.714844 L 0.0546875 99.714844 Z M 0.0546875 0.46875 " clip-rule="nonzero"/></clipPath><clipPath id="25d90be99a"><rect x="0" width="40" y="0" height="100"/></clipPath><clipPath id="da5de8dbe5"><path d="M 213.976562 116.777344 L 260.914062 116.777344 L 260.914062 158.070312 L 213.976562 158.070312 Z M 213.976562 116.777344 " clip-rule="nonzero"/></clipPath><clipPath id="2b79f447c6"><path d="M 237.382812 116.777344 L 260.789062 158.070312 L 213.976562 158.070312 Z M 237.382812 116.777344 " clip-rule="nonzero"/></clipPath><clipPath id="afc16f7ba7"><path d="M 0.976562 0.777344 L 47.914062 0.777344 L 47.914062 42.070312 L 0.976562 42.070312 Z M 0.976562 0.777344 " clip-rule="nonzero"/></clipPath><clipPath id="f89763a715"><path d="M 24.382812 0.777344 L 47.789062 42.070312 L 0.976562 42.070312 Z M 24.382812 0.777344 " clip-rule="nonzero"/></clipPath><clipPath id="aa47e64ecc"><rect x="0" width="48" y="0" height="43"/></clipPath><clipPath id="2eb094432a"><path d="M 356.136719 62.171875 L 383.296875 62.171875 L 383.296875 89.335938 L 356.136719 89.335938 Z M 356.136719 62.171875 " clip-rule="nonzero"/></clipPath><clipPath id="c3c8881586"><path d="M 369.71875 62.171875 C 362.214844 62.171875 356.136719 68.253906 356.136719 75.753906 C 356.136719 83.253906 362.214844 89.335938 369.71875 89.335938 C 377.21875 89.335938 383.296875 83.253906 383.296875 75.753906 C 383.296875 68.253906 377.21875 62.171875 369.71875 62.171875 Z M 369.71875 62.171875 " clip-rule="nonzero"/></clipPath><clipPath id="1ccd28e9ce"><path d="M 0.136719 0.171875 L 27.296875 0.171875 L 27.296875 27.335938 L 0.136719 27.335938 Z M 0.136719 0.171875 " clip-rule="nonzero"/></clipPath><clipPath id="a582f4488b"><path d="M 13.71875 0.171875 C 6.214844 0.171875 0.136719 6.253906 0.136719 13.753906 C 0.136719 21.253906 6.214844 27.335938 13.71875 27.335938 C 21.21875 27.335938 27.296875 21.253906 27.296875 13.753906 C 27.296875 6.253906 21.21875 0.171875 13.71875 0.171875 Z M 13.71875 0.171875 " clip-rule="nonzero"/></clipPath><clipPath id="155939042a"><rect x="0" width="28" y="0" height="28"/></clipPath><clipPath id="79fc6f9393"><path d="M 73 62 L 95 62 L 95 80 L 73 80 Z M 73 62 " clip-rule="nonzero"/></clipPath><clipPath id="413a45cae2"><path d="M 90.894531 58.609375 L 94.71875 75.738281 L 77.519531 79.582031 L 73.695312 62.449219 Z M 90.894531 58.609375 " clip-rule="nonzero"/></clipPath><clipPath id="673f151ab5"><path d="M 73.695312 62.449219 C 78.207031 61.441406 83.027344 62.285156 86.929688 64.761719 C 90.832031 67.238281 93.644531 71.242188 94.652344 75.753906 L 77.519531 79.582031 Z M 73.695312 62.449219 " clip-rule="nonzero"/></clipPath><clipPath id="5fe6de260b"><path d="M 0.550781 0 L 21.667969 0 L 21.667969 17.738281 L 0.550781 17.738281 Z M 0.550781 0 " clip-rule="nonzero"/></clipPath><clipPath id="7be8f8be1a"><path d="M 17.894531 -3.390625 L 21.71875 13.738281 L 4.519531 17.582031 L 0.695312 0.449219 Z M 17.894531 -3.390625 " clip-rule="nonzero"/></clipPath><clipPath id="f933e6153f"><path d="M 0.695312 0.449219 C 5.207031 -0.558594 10.027344 0.285156 13.929688 2.761719 C 17.832031 5.238281 20.644531 9.242188 21.652344 13.753906 L 4.519531 17.582031 Z M 0.695312 0.449219 " clip-rule="nonzero"/></clipPath><clipPath id="feeda7b5c8"><rect x="0" width="22" y="0" height="18"/></clipPath><clipPath id="4efbe9879e"><path d="M 206 377 L 228 377 L 228 396 L 206 396 Z M 206 377 " clip-rule="nonzero"/></clipPath><clipPath id="f16aa8dc9a"><path d="M 225.046875 398.671875 L 206.894531 395.757812 L 209.820312 377.539062 L 227.96875 380.453125 Z M 225.046875 398.671875 " clip-rule="nonzero"/></clipPath><clipPath id="4dda935399"><path d="M 227.96875 380.453125 C 227.203125 385.234375 224.515625 389.59375 220.59375 392.433594 C 216.671875 395.269531 211.6875 396.457031 206.90625 395.6875 L 209.820312 377.539062 Z M 227.96875 380.453125 " clip-rule="nonzero"/></clipPath><clipPath id="06867aeedd"><path d="M 0.734375 0.539062 L 22 0.539062 L 22 19 L 0.734375 19 Z M 0.734375 0.539062 " clip-rule="nonzero"/></clipPath><clipPath id="fbd3fe356a"><path d="M 19.046875 21.671875 L 0.894531 18.757812 L 3.820312 0.539062 L 21.96875 3.453125 Z M 19.046875 21.671875 " clip-rule="nonzero"/></clipPath><clipPath id="6902d077b5"><path d="M 21.96875 3.453125 C 21.203125 8.234375 18.515625 12.59375 14.59375 15.433594 C 10.671875 18.269531 5.6875 19.457031 0.90625 18.6875 L 3.820312 0.539062 Z M 21.96875 3.453125 " clip-rule="nonzero"/></clipPath><clipPath id="e8394d2e54"><rect x="0" width="22" y="0" height="19"/></clipPath><clipPath id="5ec4bf3ac7"><path d="M 153 378 L 175 378 L 175 396 L 153 396 Z M 153 378 " clip-rule="nonzero"/></clipPath><clipPath id="406525aa7a"><path d="M 159.003906 400.136719 L 153.378906 384.300781 L 169.28125 378.652344 L 174.90625 394.492188 Z M 159.003906 400.136719 " clip-rule="nonzero"/></clipPath><clipPath id="551bccc72e"><path d="M 174.90625 394.492188 C 170.734375 395.972656 166.054688 395.730469 162.058594 393.828125 C 158.058594 391.929688 154.921875 388.449219 153.441406 384.277344 L 169.28125 378.652344 Z M 174.90625 394.492188 " clip-rule="nonzero"/></clipPath><clipPath id="cd337c2c9a"><path d="M 0.222656 0.5 L 22 0.5 L 22 18 L 0.222656 18 Z M 0.222656 0.5 " clip-rule="nonzero"/></clipPath><clipPath id="1c25622e67"><path d="M 6.003906 22.136719 L 0.378906 6.300781 L 16.28125 0.652344 L 21.90625 16.492188 Z M 6.003906 22.136719 " clip-rule="nonzero"/></clipPath><clipPath id="d848365e17"><path d="M 21.90625 16.492188 C 17.734375 17.972656 13.054688 17.730469 9.058594 15.828125 C 5.058594 13.929688 1.921875 10.449219 0.441406 6.277344 L 16.28125 0.652344 Z M 21.90625 16.492188 " clip-rule="nonzero"/></clipPath><clipPath id="6a5e72d080"><rect x="0" width="22" y="0" height="18"/></clipPath><clipPath id="0efbd3664f"><path d="M 0.632812 62.171875 L 27.796875 62.171875 L 27.796875 90.289062 L 0.632812 90.289062 Z M 0.632812 62.171875 " clip-rule="nonzero"/></clipPath><clipPath id="030e7473cc"><path d="M 14.214844 62.171875 C 6.714844 62.171875 0.632812 68.445312 0.632812 76.1875 C 0.632812 83.925781 6.714844 90.203125 14.214844 90.203125 C 21.714844 90.203125 27.796875 83.925781 27.796875 76.1875 C 27.796875 68.445312 21.714844 62.171875 14.214844 62.171875 Z M 14.214844 62.171875 " clip-rule="nonzero"/></clipPath><clipPath id="47253fe921"><path d="M 0.632812 0.171875 L 27.796875 0.171875 L 27.796875 28.289062 L 0.632812 28.289062 Z M 0.632812 0.171875 " clip-rule="nonzero"/></clipPath><clipPath id="4c6faa473b"><path d="M 14.214844 0.171875 C 6.714844 0.171875 0.632812 6.445312 0.632812 14.1875 C 0.632812 21.925781 6.714844 28.203125 14.214844 28.203125 C 21.714844 28.203125 27.796875 21.925781 27.796875 14.1875 C 27.796875 6.445312 21.714844 0.171875 14.214844 0.171875 Z M 14.214844 0.171875 " clip-rule="nonzero"/></clipPath><clipPath id="20dd0cd95b"><rect x="0" width="28" y="0" height="29"/></clipPath><clipPath id="c3740afc1a"><path d="M 72 74 L 218 74 L 218 341 L 72 341 Z M 72 74 " clip-rule="nonzero"/></clipPath><clipPath id="fb8ea2cb18"><path d="M 72.570312 84.398438 L 94.148438 74.007812 L 217.445312 330.023438 L 195.867188 340.417969 Z M 72.570312 84.398438 " clip-rule="nonzero"/></clipPath><clipPath id="ebdfa81b3a"><path d="M 0.351562 0 L 145.53125 0 L 145.53125 266.585938 L 0.351562 266.585938 Z M 0.351562 0 " clip-rule="nonzero"/></clipPath><clipPath id="c8c5c26a87"><path d="M 0.570312 10.398438 L 22.148438 0.0078125 L 145.445312 256.023438 L 123.867188 266.417969 Z M 0.570312 10.398438 " clip-rule="nonzero"/></clipPath><clipPath id="fe9861cf6e"><rect x="0" width="146" y="0" height="267"/></clipPath><clipPath id="a4cc5883fc"><path d="M 183 64 L 364 64 L 364 325 L 183 325 Z M 183 64 " clip-rule="nonzero"/></clipPath><clipPath id="0bcb69186a"><path d="M 342.882812 64.878906 L 363.019531 77.847656 L 203.980469 324.839844 L 183.84375 311.871094 Z M 342.882812 64.878906 " clip-rule="nonzero"/></clipPath><clipPath id="187c0913f1"><path d="M 0.699219 0.859375 L 180.195312 0.859375 L 180.195312 260.988281 L 0.699219 260.988281 Z M 0.699219 0.859375 " clip-rule="nonzero"/></clipPath><clipPath id="91ebcd43f5"><path d="M 159.882812 0.878906 L 180.019531 13.847656 L 20.980469 260.839844 L 0.84375 247.871094 Z M 159.882812 0.878906 " clip-rule="nonzero"/></clipPath><clipPath id="4d5a3957e2"><rect x="0" width="181" y="0" height="261"/></clipPath><clipPath id="ecad4a3045"><path d="M 276.910156 62.167969 L 369.707031 62.167969 L 369.707031 103.765625 L 276.910156 103.765625 Z M 276.910156 62.167969 " clip-rule="nonzero"/></clipPath><clipPath id="7e0a856364"><path d="M 0.910156 0.167969 L 93.707031 0.167969 L 93.707031 41.765625 L 0.910156 41.765625 Z M 0.910156 0.167969 " clip-rule="nonzero"/></clipPath><clipPath id="759b3461fd"><rect x="0" width="94" y="0" height="42"/></clipPath><clipPath id="9f0e669068"><path d="M 182 62 L 380 62 L 380 383 L 182 383 Z M 182 62 " clip-rule="nonzero"/></clipPath><clipPath id="5bbf3edcd9"><path d="M 335.460938 62.171875 L 379.835938 84.941406 L 227.042969 382.707031 L 182.667969 359.933594 Z M 335.460938 62.171875 " clip-rule="nonzero"/></clipPath><clipPath id="4b4c8153fb"><path d="M 0.496094 0 L 197.992188 0 L 197.992188 320.820312 L 0.496094 320.820312 Z M 0.496094 0 " clip-rule="nonzero"/></clipPath><clipPath id="d5ba07aeba"><path d="M 153.460938 0.171875 L 197.835938 22.941406 L 45.042969 320.707031 L 0.667969 297.933594 Z M 153.460938 0.171875 " clip-rule="nonzero"/></clipPath><clipPath id="88c7ae7b94"><rect x="0" width="198" y="0" height="321"/></clipPath><clipPath id="7d401e4b85"><path d="M 222 70 L 284 70 L 284 155 L 222 155 Z M 222 70 " clip-rule="nonzero"/></clipPath><clipPath id="f3703d9c08"><path d="M 262.488281 70.042969 L 283.5 81.542969 L 243.792969 154.085938 L 222.785156 142.585938 Z M 262.488281 70.042969 " clip-rule="nonzero"/></clipPath><clipPath id="daeb37f2ea"><path d="M 0.570312 0 L 61.523438 0 L 61.523438 84.128906 L 0.570312 84.128906 Z M 0.570312 0 " clip-rule="nonzero"/></clipPath><clipPath id="a5c55dee65"><path d="M 40.488281 0.0429688 L 61.5 11.542969 L 21.792969 84.085938 L 0.785156 72.585938 Z M 40.488281 0.0429688 " clip-rule="nonzero"/></clipPath><clipPath id="61ab9ed238"><rect x="0" width="62" y="0" height="85"/></clipPath><clipPath id="ef8b7afdbe"><path d="M 227.636719 134.117188 L 310.335938 134.117188 L 310.335938 158.070312 L 227.636719 158.070312 Z M 227.636719 134.117188 " clip-rule="nonzero"/></clipPath><clipPath id="4c5f992b36"><path d="M 0.636719 0.117188 L 83.335938 0.117188 L 83.335938 24.070312 L 0.636719 24.070312 Z M 0.636719 0.117188 " clip-rule="nonzero"/></clipPath><clipPath id="3e1097c0ad"><rect x="0" width="84" y="0" height="25"/></clipPath><clipPath id="349664fc98"><path d="M 261.636719 62.171875 L 288.800781 62.171875 L 288.800781 89.335938 L 261.636719 89.335938 Z M 261.636719 62.171875 " clip-rule="nonzero"/></clipPath><clipPath id="ae4dbbb65d"><path d="M 275.21875 62.171875 C 267.71875 62.171875 261.636719 68.253906 261.636719 75.753906 C 261.636719 83.253906 267.71875 89.335938 275.21875 89.335938 C 282.71875 89.335938 288.800781 83.253906 288.800781 75.753906 C 288.800781 68.253906 282.71875 62.171875 275.21875 62.171875 Z M 275.21875 62.171875 " clip-rule="nonzero"/></clipPath><clipPath id="382a68bbbc"><path d="M 0.636719 0.171875 L 27.800781 0.171875 L 27.800781 27.335938 L 0.636719 27.335938 Z M 0.636719 0.171875 " clip-rule="nonzero"/></clipPath><clipPath id="a635b0e108"><path d="M 14.21875 0.171875 C 6.71875 0.171875 0.636719 6.253906 0.636719 13.753906 C 0.636719 21.253906 6.71875 27.335938 14.21875 27.335938 C 21.71875 27.335938 27.800781 21.253906 27.800781 13.753906 C 27.800781 6.253906 21.71875 0.171875 14.21875 0.171875 Z M 14.21875 0.171875 " clip-rule="nonzero"/></clipPath><clipPath id="94fb2444bd"><rect x="0" width="28" y="0" height="28"/></clipPath><clipPath id="64c5098c4e"><path d="M 253.136719 90.207031 L 343.890625 90.207031 L 343.890625 139.753906 L 253.136719 139.753906 Z M 253.136719 90.207031 " clip-rule="nonzero"/></clipPath><clipPath id="c47ebbc974"><path d="M 0.136719 0.207031 L 90.890625 0.207031 L 90.890625 49.753906 L 0.136719 49.753906 Z M 0.136719 0.207031 " clip-rule="nonzero"/></clipPath><clipPath id="391beeaeeb"><rect x="0" width="91" y="0" height="50"/></clipPath><clipPath id="0f092b06ed"><path d="M 193.804688 331.828125 L 222.769531 331.828125 L 222.769531 386.902344 L 193.804688 386.902344 Z M 193.804688 331.828125 " clip-rule="nonzero"/></clipPath><clipPath id="f4a4a24ada"><path d="M 0.804688 0.828125 L 29.769531 0.828125 L 29.769531 55.902344 L 0.804688 55.902344 Z M 0.804688 0.828125 " clip-rule="nonzero"/></clipPath><clipPath id="3d8fb5c28b"><rect x="0" width="30" y="0" height="56"/></clipPath><clipPath id="ea1c5a9b8c"><path d="M 161.429688 333 L 190.390625 333 L 190.390625 388.078125 L 161.429688 388.078125 Z M 161.429688 333 " clip-rule="nonzero"/></clipPath><clipPath id="dfc8a670f7"><path d="M 0.429688 0 L 29.390625 0 L 29.390625 55.078125 L 0.429688 55.078125 Z M 0.429688 0 " clip-rule="nonzero"/></clipPath><clipPath id="2dccbaefd1"><rect x="0" width="30" y="0" height="56"/></clipPath><clipPath id="4f6c00f630"><path d="M 22 63 L 221 63 L 221 386 L 22 386 Z M 22 63 " clip-rule="nonzero"/></clipPath><clipPath id="5d9c161f14"><path d="M 22.457031 88.054688 L 71.640625 63.453125 L 220.234375 360.507812 L 171.054688 385.109375 Z M 22.457031 88.054688 " clip-rule="nonzero"/></clipPath><clipPath id="3890b3c37a"><path d="M 0.4375 0.421875 L 198.414062 0.421875 L 198.414062 322.21875 L 0.4375 322.21875 Z M 0.4375 0.421875 " clip-rule="nonzero"/></clipPath><clipPath id="9703b3f112"><path d="M 0.457031 25.054688 L 49.640625 0.453125 L 198.234375 297.507812 L 149.054688 322.109375 Z M 0.457031 25.054688 " clip-rule="nonzero"/></clipPath><clipPath id="810a62c018"><rect x="0" width="199" y="0" height="323"/></clipPath><clipPath id="c50356be1c"><path d="M 27.785156 70.636719 L 90.210938 70.636719 L 90.210938 95.300781 L 27.785156 95.300781 Z M 27.785156 70.636719 " clip-rule="nonzero"/></clipPath><clipPath id="092c8b259d"><path d="M 0.785156 0.636719 L 63.210938 0.636719 L 63.210938 25.300781 L 0.785156 25.300781 Z M 0.785156 0.636719 " clip-rule="nonzero"/></clipPath><clipPath id="e061d3b1ae"><rect x="0" width="64" y="0" height="26"/></clipPath><clipPath id="4bf6c44276"><rect x="0" width="1230" y="0" height="435"/></clipPath></defs><g transform="matrix(1, 0, 0, 1, 131, 82)"><g clip-path="url(#4bf6c44276)"><g clip-path="url(#2ad08cf7be)"><g clip-path="url(#9dbe832362)"><g transform="matrix(1, 0, 0, 1, 1, 70)"><g clip-path="url(#d068fc0d81)"><g clip-path="url(#53c0a2c89a)"><g clip-path="url(#99e8a01f04)"><path fill="#000734" d="M 0.363281 10.757812 L 21.785156 0.0429688 L 174.9375 306.203125 L 153.515625 316.917969 Z M 0.363281 10.757812 " fill-opacity="1" fill-rule="nonzero"/></g></g></g></g></g></g><g clip-path="url(#c5ec86fd87)"><g transform="matrix(1, 0, 0, 1, 14, 62)"><g clip-path="url(#e445718626)"><g clip-path="url(#d738e2f93f)"><path fill="#000734" d="M 62.628906 0.171875 L 62.628906 24.835938 L 0.199219 24.835938 L 0.199219 0.171875 Z M 62.628906 0.171875 " fill-opacity="1" fill-rule="nonzero"/></g></g></g></g><g clip-path="url(#a152008233)"><g transform="matrix(1, 0, 0, 1, 170, 296)"><g clip-path="url(#25d90be99a)"><g clip-path="url(#967884c771)"><path fill="#000734" d="M 39.257812 0.46875 L 39.257812 99.699219 L 0.0546875 99.699219 L 0.0546875 0.46875 Z M 39.257812 0.46875 " fill-opacity="1" fill-rule="nonzero"/></g></g></g></g><g clip-path="url(#da5de8dbe5)"><g clip-path="url(#2b79f447c6)"><g transform="matrix(1, 0, 0, 1, 213, 116)"><g clip-path="url(#aa47e64ecc)"><g clip-path="url(#afc16f7ba7)"><g clip-path="url(#f89763a715)"><path fill="#000734" d="M 0.976562 0.777344 L 47.753906 0.777344 L 47.753906 42.070312 L 0.976562 42.070312 Z M 0.976562 0.777344 " fill-opacity="1" fill-rule="nonzero"/></g></g></g></g></g></g><g clip-path="url(#2eb094432a)"><g clip-path="url(#c3c8881586)"><g transform="matrix(1, 0, 0, 1, 356, 62)"><g clip-path="url(#155939042a)"><g clip-path="url(#1ccd28e9ce)"><g clip-path="url(#a582f4488b)"><path fill="#000734" d="M 0.136719 0.171875 L 27.296875 0.171875 L 27.296875 27.335938 L 0.136719 27.335938 Z M 0.136719 0.171875 " fill-opacity="1" fill-rule="nonzero"/></g></g></g></g></g></g><g clip-path="url(#79fc6f9393)"><g clip-path="url(#413a45cae2)"><g clip-path="url(#673f151ab5)"><g transform="matrix(1, 0, 0, 1, 73, 62)"><g clip-path="url(#feeda7b5c8)"><g clip-path="url(#5fe6de260b)"><g clip-path="url(#7be8f8be1a)"><g clip-path="url(#f933e6153f)"><path fill="#000734" d="M 17.824219 -3.375 L 21.652344 13.753906 L 4.519531 17.582031 L 0.695312 0.449219 Z M 17.824219 -3.375 " fill-opacity="1" fill-rule="nonzero"/></g></g></g></g></g></g></g></g><g clip-path="url(#4efbe9879e)"><g clip-path="url(#f16aa8dc9a)"><g clip-path="url(#4dda935399)"><g transform="matrix(1, 0, 0, 1, 206, 377)"><g clip-path="url(#e8394d2e54)"><g clip-path="url(#06867aeedd)"><g clip-path="url(#fbd3fe356a)"><g clip-path="url(#6902d077b5)"><path fill="#000734" d="M 19.058594 21.601562 L 0.90625 18.6875 L 3.820312 0.539062 L 21.96875 3.453125 Z M 19.058594 21.601562 " fill-opacity="1" fill-rule="nonzero"/></g></g></g></g></g></g></g></g><g clip-path="url(#5ec4bf3ac7)"><g clip-path="url(#406525aa7a)"><g clip-path="url(#551bccc72e)"><g transform="matrix(1, 0, 0, 1, 153, 378)"><g clip-path="url(#6a5e72d080)"><g clip-path="url(#cd337c2c9a)"><g clip-path="url(#1c25622e67)"><g clip-path="url(#d848365e17)"><path fill="#000734" d="M 6.066406 22.117188 L 0.441406 6.277344 L 16.28125 0.652344 L 21.90625 16.492188 Z M 6.066406 22.117188 " fill-opacity="1" fill-rule="nonzero"/></g></g></g></g></g></g></g></g><g clip-path="url(#0efbd3664f)"><g clip-path="url(#030e7473cc)"><g transform="matrix(1, 0, 0, 1, 0, 62)"><g clip-path="url(#20dd0cd95b)"><g clip-path="url(#47253fe921)"><g clip-path="url(#4c6faa473b)"><path fill="#000734" d="M 0.632812 0.171875 L 27.796875 0.171875 L 27.796875 28.183594 L 0.632812 28.183594 Z M 0.632812 0.171875 " fill-opacity="1" fill-rule="nonzero"/></g></g></g></g></g></g><g clip-path="url(#c3740afc1a)"><g clip-path="url(#fb8ea2cb18)"><g transform="matrix(1, 0, 0, 1, 72, 74)"><g clip-path="url(#fe9861cf6e)"><g clip-path="url(#ebdfa81b3a)"><g clip-path="url(#c8c5c26a87)"><path fill="#000734" d="M 0.570312 10.398438 L 22.148438 0.0078125 L 145.4375 256.003906 L 123.859375 266.398438 Z M 0.570312 10.398438 " fill-opacity="1" fill-rule="nonzero"/></g></g></g></g></g></g><g clip-path="url(#a4cc5883fc)"><g clip-path="url(#0bcb69186a)"><g transform="matrix(1, 0, 0, 1, 183, 64)"><g clip-path="url(#4d5a3957e2)"><g clip-path="url(#187c0913f1)"><g clip-path="url(#91ebcd43f5)"><path fill="#000734" d="M 159.882812 0.878906 L 180.019531 13.847656 L 20.976562 260.847656 L 0.835938 247.878906 Z M 159.882812 0.878906 " fill-opacity="1" fill-rule="nonzero"/></g></g></g></g></g></g><g clip-path="url(#ecad4a3045)"><g transform="matrix(1, 0, 0, 1, 276, 62)"><g clip-path="url(#759b3461fd)"><g clip-path="url(#7e0a856364)"><path fill="#000734" d="M 93.707031 0.167969 L 93.707031 41.765625 L 0.933594 41.765625 L 0.933594 0.167969 Z M 93.707031 0.167969 " fill-opacity="1" fill-rule="nonzero"/></g></g></g></g><g clip-path="url(#9f0e669068)"><g clip-path="url(#5bbf3edcd9)"><g transform="matrix(1, 0, 0, 1, 182, 62)"><g clip-path="url(#88c7ae7b94)"><g clip-path="url(#4b4c8153fb)"><g clip-path="url(#d5ba07aeba)"><path fill="#000734" d="M 153.460938 0.171875 L 197.835938 22.941406 L 45.027344 320.738281 L 0.652344 297.96875 Z M 153.460938 0.171875 " fill-opacity="1" fill-rule="nonzero"/></g></g></g></g></g></g><g clip-path="url(#7d401e4b85)"><g clip-path="url(#f3703d9c08)"><g transform="matrix(1, 0, 0, 1, 222, 70)"><g clip-path="url(#61ab9ed238)"><g clip-path="url(#daeb37f2ea)"><g clip-path="url(#a5c55dee65)"><path fill="#000734" d="M 40.488281 0.0429688 L 61.5 11.542969 L 21.789062 84.09375 L 0.78125 72.59375 Z M 40.488281 0.0429688 " fill-opacity="1" fill-rule="nonzero"/></g></g></g></g></g></g><g clip-path="url(#ef8b7afdbe)"><g transform="matrix(1, 0, 0, 1, 227, 134)"><g clip-path="url(#3e1097c0ad)"><g clip-path="url(#4c5f992b36)"><path fill="#000734" d="M 83.335938 0.117188 L 83.335938 24.070312 L 0.628906 24.070312 L 0.628906 0.117188 Z M 83.335938 0.117188 " fill-opacity="1" fill-rule="nonzero"/></g></g></g></g><g clip-path="url(#349664fc98)"><g clip-path="url(#ae4dbbb65d)"><g transform="matrix(1, 0, 0, 1, 261, 62)"><g clip-path="url(#94fb2444bd)"><g clip-path="url(#382a68bbbc)"><g clip-path="url(#a635b0e108)"><path fill="#000734" d="M 0.636719 0.171875 L 27.800781 0.171875 L 27.800781 27.335938 L 0.636719 27.335938 Z M 0.636719 0.171875 " fill-opacity="1" fill-rule="nonzero"/></g></g></g></g></g></g><g clip-path="url(#64c5098c4e)"><g transform="matrix(1, 0, 0, 1, 253, 90)"><g clip-path="url(#391beeaeeb)"><g clip-path="url(#c47ebbc974)"><path fill="#000734" d="M 90.890625 0.207031 L 90.890625 49.753906 L 0.117188 49.753906 L 0.117188 0.207031 Z M 90.890625 0.207031 " fill-opacity="1" fill-rule="nonzero"/></g></g></g></g><g clip-path="url(#0f092b06ed)"><g transform="matrix(1, 0, 0, 1, 193, 331)"><g clip-path="url(#3d8fb5c28b)"><g clip-path="url(#f4a4a24ada)"><path fill="#000734" d="M 29.769531 0.828125 L 29.769531 55.925781 L 0.804688 55.925781 L 0.804688 0.828125 Z M 29.769531 0.828125 " fill-opacity="1" fill-rule="nonzero"/></g></g></g></g><g clip-path="url(#ea1c5a9b8c)"><g transform="matrix(1, 0, 0, 1, 161, 333)"><g clip-path="url(#2dccbaefd1)"><g clip-path="url(#dfc8a670f7)"><path fill="#000734" d="M 29.390625 0 L 29.390625 55.101562 L 0.429688 55.101562 L 0.429688 0 Z M 29.390625 0 " fill-opacity="1" fill-rule="nonzero"/></g></g></g></g><g clip-path="url(#4f6c00f630)"><g clip-path="url(#5d9c161f14)"><g transform="matrix(1, 0, 0, 1, 22, 63)"><g clip-path="url(#810a62c018)"><g clip-path="url(#3890b3c37a)"><g clip-path="url(#9703b3f112)"><path fill="#000734" d="M 0.457031 25.054688 L 49.640625 0.453125 L 198.214844 297.46875 L 149.035156 322.070312 Z M 0.457031 25.054688 " fill-opacity="1" fill-rule="nonzero"/></g></g></g></g></g></g><g clip-path="url(#c50356be1c)"><g transform="matrix(1, 0, 0, 1, 27, 70)"><g clip-path="url(#e061d3b1ae)"><g clip-path="url(#092c8b259d)"><path fill="#000734" d="M 63.210938 0.636719 L 63.210938 25.300781 L 0.777344 25.300781 L 0.777344 0.636719 Z M 63.210938 0.636719 " fill-opacity="1" fill-rule="nonzero"/></g></g></g></g><g fill="#000734" fill-opacity="1"><g transform="translate(518.637284, 344.071496)"><g><path d="M 269.1875 -249.25 L 161.296875 0 L 104.328125 0 L -3.203125 -249.25 L 59.109375 -249.25 L 134.953125 -71.21875 L 211.859375 -249.25 Z M 269.1875 -249.25 "/></g></g></g><g fill="#000734" fill-opacity="1"><g transform="translate(784.26812, 344.071496)"><g><path d="M 209.359375 -108.953125 C 209.359375 -99.691406 208.410156 -90.671875 206.515625 -81.890625 L 55.546875 -81.890625 C 56.253906 -50.796875 74.53125 -35.25 110.375 -35.25 C 121.300781 -35.25 131.507812 -36.96875 141 -40.40625 C 150.5 -43.851562 158.570312 -48.660156 165.21875 -54.828125 L 183.734375 -23.859375 C 173.992188 -15.078125 162.300781 -8.488281 148.65625 -4.09375 C 135.007812 0.300781 120.707031 2.5 105.75 2.5 C 86.757812 2.5 70.203125 -0.941406 56.078125 -7.828125 C 41.953125 -14.710938 31.09375 -24.503906 23.5 -37.203125 C 15.90625 -49.910156 12.109375 -64.570312 12.109375 -81.1875 C 12.109375 -102.3125 16.796875 -121.359375 26.171875 -138.328125 C 35.546875 -155.296875 48.597656 -168.53125 65.328125 -178.03125 C 82.066406 -187.53125 100.878906 -192.28125 121.765625 -192.28125 C 148.359375 -192.28125 169.601562 -184.859375 185.5 -170.015625 C 201.40625 -155.179688 209.359375 -134.828125 209.359375 -108.953125 Z M 119.640625 -156.671875 C 104.679688 -156.671875 91.921875 -152.632812 81.359375 -144.5625 C 70.796875 -136.488281 63.5 -125.453125 59.46875 -111.453125 L 168.421875 -111.453125 C 168.660156 -125.691406 164.328125 -136.785156 155.421875 -144.734375 C 146.515625 -152.691406 134.585938 -156.671875 119.640625 -156.671875 Z M 119.640625 -156.671875 "/></g></g></g><g fill="#000734" fill-opacity="1"><g transform="translate(1004.671094, 344.071496)"><g><path d="M 126.40625 -95.421875 L 180.53125 0 L 133.515625 0 L 97.203125 -65.875 L 34.890625 0 L -16.375 0 L 79.046875 -98.265625 L 27.421875 -190.140625 L 73.703125 -190.140625 L 107.890625 -127.828125 L 167.703125 -190.140625 L 217.546875 -190.140625 Z M 126.40625 -95.421875 "/></g></g></g></g></g></svg>