<svg xmlns="http://www.w3.org/2000/svg" xmlns:xlink="http://www.w3.org/1999/xlink" width="2000" zoomAndPan="magnify" viewBox="0 0 1500 607.92" height="800" preserveAspectRatio="xMidYMid meet" version="1.0"><defs><g/><clipPath id="ed25a0f5ef"><path d="M 132 152 L 307 152 L 307 469 L 132 469 Z M 132 152 " clip-rule="nonzero"/></clipPath><clipPath id="8a4b854206"><path d="M 132.363281 162.757812 L 153.78125 152.042969 L 306.925781 458.1875 L 285.507812 468.902344 Z M 132.363281 162.757812 " clip-rule="nonzero"/></clipPath><clipPath id="5df19b3e2c"><path d="M 0.320312 0 L 175 0 L 175 317 L 0.320312 317 Z M 0.320312 0 " clip-rule="nonzero"/></clipPath><clipPath id="c77c36cfd7"><path d="M 0.363281 10.757812 L 21.78125 0.0429688 L 174.925781 306.1875 L 153.507812 316.902344 Z M 0.363281 10.757812 " clip-rule="nonzero"/></clipPath><clipPath id="49a64ab32c"><rect x="0" width="175" y="0" height="317"/></clipPath><clipPath id="e7ac9313b9"><path d="M 145.203125 144.171875 L 207.628906 144.171875 L 207.628906 168.839844 L 145.203125 168.839844 Z M 145.203125 144.171875 " clip-rule="nonzero"/></clipPath><clipPath id="1d306e23b6"><path d="M 0.203125 0.171875 L 62.628906 0.171875 L 62.628906 24.839844 L 0.203125 24.839844 Z M 0.203125 0.171875 " clip-rule="nonzero"/></clipPath><clipPath id="f4b9d18523"><rect x="0" width="63" y="0" height="25"/></clipPath><clipPath id="67e7d3c597"><path d="M 301.054688 378.464844 L 340.253906 378.464844 L 340.253906 477.707031 L 301.054688 477.707031 Z M 301.054688 378.464844 " clip-rule="nonzero"/></clipPath><clipPath id="bf0fa22b8a"><path d="M 0.0546875 0.464844 L 39.253906 0.464844 L 39.253906 99.707031 L 0.0546875 99.707031 Z M 0.0546875 0.464844 " clip-rule="nonzero"/></clipPath><clipPath id="10eed39cf0"><rect x="0" width="40" y="0" height="100"/></clipPath><clipPath id="240c4de782"><path d="M 344.976562 198.777344 L 391.914062 198.777344 L 391.914062 240.070312 L 344.976562 240.070312 Z M 344.976562 198.777344 " clip-rule="nonzero"/></clipPath><clipPath id="b7151cd29b"><path d="M 368.382812 198.777344 L 391.789062 240.070312 L 344.976562 240.070312 Z M 368.382812 198.777344 " clip-rule="nonzero"/></clipPath><clipPath id="468b59993b"><path d="M 0.976562 0.777344 L 47.914062 0.777344 L 47.914062 42.070312 L 0.976562 42.070312 Z M 0.976562 0.777344 " clip-rule="nonzero"/></clipPath><clipPath id="179a0db002"><path d="M 24.382812 0.777344 L 47.789062 42.070312 L 0.976562 42.070312 Z M 24.382812 0.777344 " clip-rule="nonzero"/></clipPath><clipPath id="88743026bf"><rect x="0" width="48" y="0" height="43"/></clipPath><clipPath id="2a45a0c020"><path d="M 487.136719 144.171875 L 514.296875 144.171875 L 514.296875 171.335938 L 487.136719 171.335938 Z M 487.136719 144.171875 " clip-rule="nonzero"/></clipPath><clipPath id="4f4f0266d5"><path d="M 500.71875 144.171875 C 493.214844 144.171875 487.136719 150.253906 487.136719 157.753906 C 487.136719 165.253906 493.214844 171.335938 500.71875 171.335938 C 508.21875 171.335938 514.296875 165.253906 514.296875 157.753906 C 514.296875 150.253906 508.21875 144.171875 500.71875 144.171875 Z M 500.71875 144.171875 " clip-rule="nonzero"/></clipPath><clipPath id="b5cbc619c3"><path d="M 0.136719 0.171875 L 27.296875 0.171875 L 27.296875 27.335938 L 0.136719 27.335938 Z M 0.136719 0.171875 " clip-rule="nonzero"/></clipPath><clipPath id="964f93808e"><path d="M 13.71875 0.171875 C 6.214844 0.171875 0.136719 6.253906 0.136719 13.753906 C 0.136719 21.253906 6.214844 27.335938 13.71875 27.335938 C 21.21875 27.335938 27.296875 21.253906 27.296875 13.753906 C 27.296875 6.253906 21.21875 0.171875 13.71875 0.171875 Z M 13.71875 0.171875 " clip-rule="nonzero"/></clipPath><clipPath id="0540e0f80b"><rect x="0" width="28" y="0" height="28"/></clipPath><clipPath id="c0abbce102"><path d="M 204 144 L 226 144 L 226 162 L 204 162 Z M 204 144 " clip-rule="nonzero"/></clipPath><clipPath id="01fe911143"><path d="M 221.902344 140.609375 L 225.726562 157.738281 L 208.53125 161.578125 L 204.703125 144.449219 Z M 221.902344 140.609375 " clip-rule="nonzero"/></clipPath><clipPath id="e1e8953d70"><path d="M 204.703125 144.449219 C 209.214844 143.441406 214.035156 144.285156 217.9375 146.761719 C 221.839844 149.238281 224.652344 153.242188 225.660156 157.753906 L 208.53125 161.578125 Z M 204.703125 144.449219 " clip-rule="nonzero"/></clipPath><clipPath id="6f5e83d010"><path d="M 0.550781 0 L 21.667969 0 L 21.667969 17.738281 L 0.550781 17.738281 Z M 0.550781 0 " clip-rule="nonzero"/></clipPath><clipPath id="1ce7b97874"><path d="M 17.902344 -3.390625 L 21.726562 13.738281 L 4.53125 17.578125 L 0.703125 0.449219 Z M 17.902344 -3.390625 " clip-rule="nonzero"/></clipPath><clipPath id="fb3b8a8c3d"><path d="M 0.703125 0.449219 C 5.214844 -0.558594 10.035156 0.285156 13.9375 2.761719 C 17.839844 5.238281 20.652344 9.242188 21.660156 13.753906 L 4.53125 17.578125 Z M 0.703125 0.449219 " clip-rule="nonzero"/></clipPath><clipPath id="5d9431657e"><rect x="0" width="22" y="0" height="18"/></clipPath><clipPath id="97bf6c8f7b"><path d="M 337 459 L 359 459 L 359 478 L 337 478 Z M 337 459 " clip-rule="nonzero"/></clipPath><clipPath id="95dc334452"><path d="M 356.042969 480.671875 L 337.894531 477.757812 L 340.820312 459.535156 L 358.96875 462.449219 Z M 356.042969 480.671875 " clip-rule="nonzero"/></clipPath><clipPath id="ffb018b0b7"><path d="M 358.96875 462.449219 C 358.199219 467.230469 355.515625 471.59375 351.59375 474.429688 C 347.667969 477.265625 342.683594 478.453125 337.90625 477.6875 L 340.820312 459.535156 Z M 358.96875 462.449219 " clip-rule="nonzero"/></clipPath><clipPath id="9b6adfb651"><path d="M 0.734375 0.300781 L 22 0.300781 L 22 19 L 0.734375 19 Z M 0.734375 0.300781 " clip-rule="nonzero"/></clipPath><clipPath id="6a4765529d"><path d="M 19.042969 21.671875 L 0.894531 18.757812 L 3.820312 0.535156 L 21.96875 3.449219 Z M 19.042969 21.671875 " clip-rule="nonzero"/></clipPath><clipPath id="61aac5a2a4"><path d="M 21.96875 3.449219 C 21.199219 8.230469 18.515625 12.59375 14.59375 15.429688 C 10.667969 18.265625 5.683594 19.453125 0.90625 18.6875 L 3.820312 0.535156 Z M 21.96875 3.449219 " clip-rule="nonzero"/></clipPath><clipPath id="0aada75199"><rect x="0" width="22" y="0" height="19"/></clipPath><clipPath id="eb2dbbc764"><path d="M 284 460 L 306 460 L 306 478 L 284 478 Z M 284 460 " clip-rule="nonzero"/></clipPath><clipPath id="98870923f8"><path d="M 290.003906 482.136719 L 284.378906 466.296875 L 300.28125 460.648438 L 305.902344 476.488281 Z M 290.003906 482.136719 " clip-rule="nonzero"/></clipPath><clipPath id="80c21d7004"><path d="M 305.902344 476.488281 C 301.730469 477.96875 297.054688 477.730469 293.054688 475.828125 C 289.058594 473.925781 285.921875 470.445312 284.441406 466.273438 L 300.28125 460.648438 Z M 305.902344 476.488281 " clip-rule="nonzero"/></clipPath><clipPath id="e3c8d805bb"><path d="M 0.222656 0.5 L 22 0.5 L 22 18 L 0.222656 18 Z M 0.222656 0.5 " clip-rule="nonzero"/></clipPath><clipPath id="3c0e9a3c56"><path d="M 6.003906 22.136719 L 0.378906 6.296875 L 16.28125 0.648438 L 21.902344 16.488281 Z M 6.003906 22.136719 " clip-rule="nonzero"/></clipPath><clipPath id="12c4d9f937"><path d="M 21.902344 16.488281 C 17.730469 17.96875 13.054688 17.730469 9.054688 15.828125 C 5.058594 13.925781 1.921875 10.445312 0.441406 6.273438 L 16.28125 0.648438 Z M 21.902344 16.488281 " clip-rule="nonzero"/></clipPath><clipPath id="04f4ba917e"><rect x="0" width="22" y="0" height="18"/></clipPath><clipPath id="01f6842d4a"><path d="M 131.632812 144.171875 L 158.796875 144.171875 L 158.796875 172.289062 L 131.632812 172.289062 Z M 131.632812 144.171875 " clip-rule="nonzero"/></clipPath><clipPath id="05fd1652cd"><path d="M 145.214844 144.171875 C 137.714844 144.171875 131.632812 150.445312 131.632812 158.1875 C 131.632812 165.925781 137.714844 172.203125 145.214844 172.203125 C 152.714844 172.203125 158.796875 165.925781 158.796875 158.1875 C 158.796875 150.445312 152.714844 144.171875 145.214844 144.171875 Z M 145.214844 144.171875 " clip-rule="nonzero"/></clipPath><clipPath id="99ec9d78a4"><path d="M 0.632812 0.171875 L 27.796875 0.171875 L 27.796875 28.289062 L 0.632812 28.289062 Z M 0.632812 0.171875 " clip-rule="nonzero"/></clipPath><clipPath id="d221e2934f"><path d="M 14.214844 0.171875 C 6.714844 0.171875 0.632812 6.445312 0.632812 14.1875 C 0.632812 21.925781 6.714844 28.203125 14.214844 28.203125 C 21.714844 28.203125 27.796875 21.925781 27.796875 14.1875 C 27.796875 6.445312 21.714844 0.171875 14.214844 0.171875 Z M 14.214844 0.171875 " clip-rule="nonzero"/></clipPath><clipPath id="a324d8f81d"><rect x="0" width="28" y="0" height="29"/></clipPath><clipPath id="3411cd5a89"><path d="M 203 156 L 349 156 L 349 423 L 203 423 Z M 203 156 " clip-rule="nonzero"/></clipPath><clipPath id="6b1a7344be"><path d="M 203.570312 166.398438 L 225.148438 156.007812 L 348.445312 412.023438 L 326.867188 422.417969 Z M 203.570312 166.398438 " clip-rule="nonzero"/></clipPath><clipPath id="d68031b99a"><path d="M 0.351562 0 L 145.53125 0 L 145.53125 266.585938 L 0.351562 266.585938 Z M 0.351562 0 " clip-rule="nonzero"/></clipPath><clipPath id="f0b4cfa801"><path d="M 0.570312 10.398438 L 22.148438 0.0078125 L 145.445312 256.023438 L 123.867188 266.417969 Z M 0.570312 10.398438 " clip-rule="nonzero"/></clipPath><clipPath id="7e454d44b6"><rect x="0" width="146" y="0" height="267"/></clipPath><clipPath id="56cc891d0c"><path d="M 314 146 L 495 146 L 495 407 L 314 407 Z M 314 146 " clip-rule="nonzero"/></clipPath><clipPath id="1fe99be655"><path d="M 473.882812 146.878906 L 494.019531 159.847656 L 334.980469 406.839844 L 314.84375 393.871094 Z M 473.882812 146.878906 " clip-rule="nonzero"/></clipPath><clipPath id="13f0b7b320"><path d="M 0.699219 0.859375 L 180.195312 0.859375 L 180.195312 260.988281 L 0.699219 260.988281 Z M 0.699219 0.859375 " clip-rule="nonzero"/></clipPath><clipPath id="1991a856d5"><path d="M 159.882812 0.878906 L 180.019531 13.847656 L 20.980469 260.839844 L 0.84375 247.871094 Z M 159.882812 0.878906 " clip-rule="nonzero"/></clipPath><clipPath id="861e5d7d12"><rect x="0" width="181" y="0" height="261"/></clipPath><clipPath id="e9107acadf"><path d="M 407.90625 144.171875 L 500.707031 144.171875 L 500.707031 185.765625 L 407.90625 185.765625 Z M 407.90625 144.171875 " clip-rule="nonzero"/></clipPath><clipPath id="b858f0c91d"><path d="M 0.90625 0.171875 L 93.707031 0.171875 L 93.707031 41.765625 L 0.90625 41.765625 Z M 0.90625 0.171875 " clip-rule="nonzero"/></clipPath><clipPath id="04254d1fa6"><rect x="0" width="94" y="0" height="42"/></clipPath><clipPath id="1bce9877c3"><path d="M 313 144 L 511 144 L 511 465 L 313 465 Z M 313 144 " clip-rule="nonzero"/></clipPath><clipPath id="efd5d996f7"><path d="M 466.460938 144.171875 L 510.835938 166.945312 L 358.042969 464.707031 L 313.667969 441.9375 Z M 466.460938 144.171875 " clip-rule="nonzero"/></clipPath><clipPath id="988babbda0"><path d="M 0.496094 0 L 197.992188 0 L 197.992188 320.820312 L 0.496094 320.820312 Z M 0.496094 0 " clip-rule="nonzero"/></clipPath><clipPath id="bc3c99946c"><path d="M 153.460938 0.171875 L 197.835938 22.945312 L 45.042969 320.707031 L 0.667969 297.9375 Z M 153.460938 0.171875 " clip-rule="nonzero"/></clipPath><clipPath id="10d65c8fad"><rect x="0" width="198" y="0" height="321"/></clipPath><clipPath id="cb717d71fe"><path d="M 353 152 L 415 152 L 415 237 L 353 237 Z M 353 152 " clip-rule="nonzero"/></clipPath><clipPath id="497c236f9b"><path d="M 393.484375 152.042969 L 414.496094 163.539062 L 374.792969 236.085938 L 353.78125 224.585938 Z M 393.484375 152.042969 " clip-rule="nonzero"/></clipPath><clipPath id="b0e95edb9c"><path d="M 0.570312 0 L 61.523438 0 L 61.523438 84.128906 L 0.570312 84.128906 Z M 0.570312 0 " clip-rule="nonzero"/></clipPath><clipPath id="97ff7f888a"><path d="M 40.484375 0.0429688 L 61.496094 11.539062 L 21.792969 84.085938 L 0.78125 72.585938 Z M 40.484375 0.0429688 " clip-rule="nonzero"/></clipPath><clipPath id="f6eba51d95"><rect x="0" width="62" y="0" height="85"/></clipPath><clipPath id="ee6aeaf661"><path d="M 358.632812 216.113281 L 441.332031 216.113281 L 441.332031 240.066406 L 358.632812 240.066406 Z M 358.632812 216.113281 " clip-rule="nonzero"/></clipPath><clipPath id="2da395352b"><path d="M 0.632812 0.113281 L 83.332031 0.113281 L 83.332031 24.066406 L 0.632812 24.066406 Z M 0.632812 0.113281 " clip-rule="nonzero"/></clipPath><clipPath id="4d03c6049e"><rect x="0" width="84" y="0" height="25"/></clipPath><clipPath id="128d246035"><path d="M 392.636719 144.171875 L 419.800781 144.171875 L 419.800781 171.335938 L 392.636719 171.335938 Z M 392.636719 144.171875 " clip-rule="nonzero"/></clipPath><clipPath id="89a5c3c49f"><path d="M 406.21875 144.171875 C 398.71875 144.171875 392.636719 150.253906 392.636719 157.753906 C 392.636719 165.253906 398.71875 171.335938 406.21875 171.335938 C 413.71875 171.335938 419.800781 165.253906 419.800781 157.753906 C 419.800781 150.253906 413.71875 144.171875 406.21875 144.171875 Z M 406.21875 144.171875 " clip-rule="nonzero"/></clipPath><clipPath id="493c16532d"><path d="M 0.636719 0.171875 L 27.800781 0.171875 L 27.800781 27.335938 L 0.636719 27.335938 Z M 0.636719 0.171875 " clip-rule="nonzero"/></clipPath><clipPath id="16b7e3b3b1"><path d="M 14.21875 0.171875 C 6.71875 0.171875 0.636719 6.253906 0.636719 13.753906 C 0.636719 21.253906 6.71875 27.335938 14.21875 27.335938 C 21.71875 27.335938 27.800781 21.253906 27.800781 13.753906 C 27.800781 6.253906 21.71875 0.171875 14.21875 0.171875 Z M 14.21875 0.171875 " clip-rule="nonzero"/></clipPath><clipPath id="c55305e07a"><rect x="0" width="28" y="0" height="28"/></clipPath><clipPath id="8d963b2572"><path d="M 384.136719 172.203125 L 474.890625 172.203125 L 474.890625 221.75 L 384.136719 221.75 Z M 384.136719 172.203125 " clip-rule="nonzero"/></clipPath><clipPath id="6882a7df4c"><path d="M 0.136719 0.203125 L 90.890625 0.203125 L 90.890625 49.75 L 0.136719 49.75 Z M 0.136719 0.203125 " clip-rule="nonzero"/></clipPath><clipPath id="7c4461e32f"><rect x="0" width="91" y="0" height="50"/></clipPath><clipPath id="8af97df316"><path d="M 324.8125 413.824219 L 353.777344 413.824219 L 353.777344 468.898438 L 324.8125 468.898438 Z M 324.8125 413.824219 " clip-rule="nonzero"/></clipPath><clipPath id="3f950e1476"><path d="M 0.8125 0.824219 L 29.777344 0.824219 L 29.777344 55.898438 L 0.8125 55.898438 Z M 0.8125 0.824219 " clip-rule="nonzero"/></clipPath><clipPath id="bab6383c99"><rect x="0" width="30" y="0" height="56"/></clipPath><clipPath id="755d35827f"><path d="M 292.433594 415 L 321.398438 415 L 321.398438 470.074219 L 292.433594 470.074219 Z M 292.433594 415 " clip-rule="nonzero"/></clipPath><clipPath id="032591aa09"><path d="M 0.433594 0 L 29.398438 0 L 29.398438 55.074219 L 0.433594 55.074219 Z M 0.433594 0 " clip-rule="nonzero"/></clipPath><clipPath id="f9909521b5"><rect x="0" width="30" y="0" height="56"/></clipPath><clipPath id="bdef3a97e3"><path d="M 153 145 L 352 145 L 352 468 L 153 468 Z M 153 145 " clip-rule="nonzero"/></clipPath><clipPath id="d0d86cbad4"><path d="M 153.457031 170.058594 L 202.640625 145.453125 L 351.238281 442.507812 L 302.054688 467.113281 Z M 153.457031 170.058594 " clip-rule="nonzero"/></clipPath><clipPath id="d1199e04f5"><path d="M 0.4375 0.421875 L 198.414062 0.421875 L 198.414062 322.21875 L 0.4375 322.21875 Z M 0.4375 0.421875 " clip-rule="nonzero"/></clipPath><clipPath id="e413b812d8"><path d="M 0.457031 25.058594 L 49.640625 0.453125 L 198.238281 297.507812 L 149.054688 322.113281 Z M 0.457031 25.058594 " clip-rule="nonzero"/></clipPath><clipPath id="301623a471"><rect x="0" width="199" y="0" height="323"/></clipPath><clipPath id="0fdbaa2842"><path d="M 158.785156 152.636719 L 221.210938 152.636719 L 221.210938 177.304688 L 158.785156 177.304688 Z M 158.785156 152.636719 " clip-rule="nonzero"/></clipPath><clipPath id="b0510d0abf"><path d="M 0.785156 0.636719 L 63.210938 0.636719 L 63.210938 25.304688 L 0.785156 25.304688 Z M 0.785156 0.636719 " clip-rule="nonzero"/></clipPath><clipPath id="60fa9478d1"><rect x="0" width="64" y="0" height="26"/></clipPath><clipPath id="b645eb47d0"><rect x="0" width="718" y="0" height="435"/></clipPath></defs><g clip-path="url(#ed25a0f5ef)"><g clip-path="url(#8a4b854206)"><g transform="matrix(1, 0, 0, 1, 132, 152)"><g clip-path="url(#49a64ab32c)"><g clip-path="url(#5df19b3e2c)"><g clip-path="url(#c77c36cfd7)"><path fill="#f8f7ef" d="M 0.363281 10.757812 L 21.78125 0.0429688 L 174.933594 306.203125 L 153.515625 316.917969 Z M 0.363281 10.757812 " fill-opacity="1" fill-rule="nonzero"/></g></g></g></g></g></g><g clip-path="url(#e7ac9313b9)"><g transform="matrix(1, 0, 0, 1, 145, 144)"><g clip-path="url(#f4b9d18523)"><g clip-path="url(#1d306e23b6)"><path fill="#f8f7ef" d="M 62.628906 0.171875 L 62.628906 24.839844 L 0.199219 24.839844 L 0.199219 0.171875 Z M 62.628906 0.171875 " fill-opacity="1" fill-rule="nonzero"/></g></g></g></g><g clip-path="url(#67e7d3c597)"><g transform="matrix(1, 0, 0, 1, 301, 378)"><g clip-path="url(#10eed39cf0)"><g clip-path="url(#bf0fa22b8a)"><path fill="#f8f7ef" d="M 39.253906 0.464844 L 39.253906 99.695312 L 0.0546875 99.695312 L 0.0546875 0.464844 Z M 39.253906 0.464844 " fill-opacity="1" fill-rule="nonzero"/></g></g></g></g><g clip-path="url(#240c4de782)"><g clip-path="url(#b7151cd29b)"><g transform="matrix(1, 0, 0, 1, 344, 198)"><g clip-path="url(#88743026bf)"><g clip-path="url(#468b59993b)"><g clip-path="url(#179a0db002)"><path fill="#f8f7ef" d="M 0.976562 0.777344 L 47.753906 0.777344 L 47.753906 42.070312 L 0.976562 42.070312 Z M 0.976562 0.777344 " fill-opacity="1" fill-rule="nonzero"/></g></g></g></g></g></g><g clip-path="url(#2a45a0c020)"><g clip-path="url(#4f4f0266d5)"><g transform="matrix(1, 0, 0, 1, 487, 144)"><g clip-path="url(#0540e0f80b)"><g clip-path="url(#b5cbc619c3)"><g clip-path="url(#964f93808e)"><path fill="#f8f7ef" d="M 0.136719 0.171875 L 27.296875 0.171875 L 27.296875 27.335938 L 0.136719 27.335938 Z M 0.136719 0.171875 " fill-opacity="1" fill-rule="nonzero"/></g></g></g></g></g></g><g clip-path="url(#c0abbce102)"><g clip-path="url(#01fe911143)"><g clip-path="url(#e1e8953d70)"><g transform="matrix(1, 0, 0, 1, 204, 144)"><g clip-path="url(#5d9431657e)"><g clip-path="url(#6f5e83d010)"><g clip-path="url(#1ce7b97874)"><g clip-path="url(#fb3b8a8c3d)"><path fill="#f8f7ef" d="M 17.835938 -3.378906 L 21.660156 13.753906 L 4.53125 17.578125 L 0.703125 0.449219 Z M 17.835938 -3.378906 " fill-opacity="1" fill-rule="nonzero"/></g></g></g></g></g></g></g></g><g clip-path="url(#97bf6c8f7b)"><g clip-path="url(#95dc334452)"><g clip-path="url(#ffb018b0b7)"><g transform="matrix(1, 0, 0, 1, 337, 459)"><g clip-path="url(#0aada75199)"><g clip-path="url(#9b6adfb651)"><g clip-path="url(#6a4765529d)"><g clip-path="url(#61aac5a2a4)"><path fill="#f8f7ef" d="M 19.054688 21.597656 L 0.90625 18.6875 L 3.820312 0.535156 L 21.96875 3.449219 Z M 19.054688 21.597656 " fill-opacity="1" fill-rule="nonzero"/></g></g></g></g></g></g></g></g><g clip-path="url(#eb2dbbc764)"><g clip-path="url(#98870923f8)"><g clip-path="url(#80c21d7004)"><g transform="matrix(1, 0, 0, 1, 284, 460)"><g clip-path="url(#04f4ba917e)"><g clip-path="url(#e3c8d805bb)"><g clip-path="url(#3c0e9a3c56)"><g clip-path="url(#12c4d9f937)"><path fill="#f8f7ef" d="M 6.066406 22.113281 L 0.441406 6.273438 L 16.28125 0.648438 L 21.902344 16.488281 Z M 6.066406 22.113281 " fill-opacity="1" fill-rule="nonzero"/></g></g></g></g></g></g></g></g><g clip-path="url(#01f6842d4a)"><g clip-path="url(#05fd1652cd)"><g transform="matrix(1, 0, 0, 1, 131, 144)"><g clip-path="url(#a324d8f81d)"><g clip-path="url(#99ec9d78a4)"><g clip-path="url(#d221e2934f)"><path fill="#f8f7ef" d="M 0.632812 0.171875 L 27.796875 0.171875 L 27.796875 28.183594 L 0.632812 28.183594 Z M 0.632812 0.171875 " fill-opacity="1" fill-rule="nonzero"/></g></g></g></g></g></g><g clip-path="url(#3411cd5a89)"><g clip-path="url(#6b1a7344be)"><g transform="matrix(1, 0, 0, 1, 203, 156)"><g clip-path="url(#7e454d44b6)"><g clip-path="url(#d68031b99a)"><g clip-path="url(#f0b4cfa801)"><path fill="#f8f7ef" d="M 0.570312 10.398438 L 22.148438 0.0078125 L 145.4375 256.003906 L 123.859375 266.398438 Z M 0.570312 10.398438 " fill-opacity="1" fill-rule="nonzero"/></g></g></g></g></g></g><g clip-path="url(#56cc891d0c)"><g clip-path="url(#1fe99be655)"><g transform="matrix(1, 0, 0, 1, 314, 146)"><g clip-path="url(#861e5d7d12)"><g clip-path="url(#13f0b7b320)"><g clip-path="url(#1991a856d5)"><path fill="#f8f7ef" d="M 159.882812 0.878906 L 180.019531 13.847656 L 20.976562 260.847656 L 0.835938 247.878906 Z M 159.882812 0.878906 " fill-opacity="1" fill-rule="nonzero"/></g></g></g></g></g></g><g clip-path="url(#e9107acadf)"><g transform="matrix(1, 0, 0, 1, 407, 144)"><g clip-path="url(#04254d1fa6)"><g clip-path="url(#b858f0c91d)"><path fill="#f8f7ef" d="M 93.707031 0.171875 L 93.707031 41.765625 L 0.933594 41.765625 L 0.933594 0.171875 Z M 93.707031 0.171875 " fill-opacity="1" fill-rule="nonzero"/></g></g></g></g><g clip-path="url(#1bce9877c3)"><g clip-path="url(#efd5d996f7)"><g transform="matrix(1, 0, 0, 1, 313, 144)"><g clip-path="url(#10d65c8fad)"><g clip-path="url(#988babbda0)"><g clip-path="url(#bc3c99946c)"><path fill="#f8f7ef" d="M 153.460938 0.171875 L 197.835938 22.945312 L 45.027344 320.738281 L 0.652344 297.96875 Z M 153.460938 0.171875 " fill-opacity="1" fill-rule="nonzero"/></g></g></g></g></g></g><g clip-path="url(#cb717d71fe)"><g clip-path="url(#497c236f9b)"><g transform="matrix(1, 0, 0, 1, 353, 152)"><g clip-path="url(#f6eba51d95)"><g clip-path="url(#b0e95edb9c)"><g clip-path="url(#97ff7f888a)"><path fill="#f8f7ef" d="M 40.484375 0.0429688 L 61.496094 11.539062 L 21.789062 84.089844 L 0.777344 72.59375 Z M 40.484375 0.0429688 " fill-opacity="1" fill-rule="nonzero"/></g></g></g></g></g></g><g clip-path="url(#ee6aeaf661)"><g transform="matrix(1, 0, 0, 1, 358, 216)"><g clip-path="url(#4d03c6049e)"><g clip-path="url(#2da395352b)"><path fill="#f8f7ef" d="M 83.332031 0.113281 L 83.332031 24.066406 L 0.625 24.066406 L 0.625 0.113281 Z M 83.332031 0.113281 " fill-opacity="1" fill-rule="nonzero"/></g></g></g></g><g clip-path="url(#128d246035)"><g clip-path="url(#89a5c3c49f)"><g transform="matrix(1, 0, 0, 1, 392, 144)"><g clip-path="url(#c55305e07a)"><g clip-path="url(#493c16532d)"><g clip-path="url(#16b7e3b3b1)"><path fill="#f8f7ef" d="M 0.636719 0.171875 L 27.800781 0.171875 L 27.800781 27.335938 L 0.636719 27.335938 Z M 0.636719 0.171875 " fill-opacity="1" fill-rule="nonzero"/></g></g></g></g></g></g><g clip-path="url(#8d963b2572)"><g transform="matrix(1, 0, 0, 1, 384, 172)"><g clip-path="url(#7c4461e32f)"><g clip-path="url(#6882a7df4c)"><path fill="#f8f7ef" d="M 90.890625 0.203125 L 90.890625 49.75 L 0.117188 49.75 L 0.117188 0.203125 Z M 90.890625 0.203125 " fill-opacity="1" fill-rule="nonzero"/></g></g></g></g><g clip-path="url(#8af97df316)"><g transform="matrix(1, 0, 0, 1, 324, 413)"><g clip-path="url(#bab6383c99)"><g clip-path="url(#3f950e1476)"><path fill="#f8f7ef" d="M 29.777344 0.824219 L 29.777344 55.925781 L 0.8125 55.925781 L 0.8125 0.824219 Z M 29.777344 0.824219 " fill-opacity="1" fill-rule="nonzero"/></g></g></g></g><g clip-path="url(#755d35827f)"><g transform="matrix(1, 0, 0, 1, 292, 415)"><g clip-path="url(#f9909521b5)"><g clip-path="url(#032591aa09)"><path fill="#f8f7ef" d="M 29.398438 0 L 29.398438 55.097656 L 0.433594 55.097656 L 0.433594 0 Z M 29.398438 0 " fill-opacity="1" fill-rule="nonzero"/></g></g></g></g><g clip-path="url(#bdef3a97e3)"><g clip-path="url(#d0d86cbad4)"><g transform="matrix(1, 0, 0, 1, 153, 145)"><g clip-path="url(#301623a471)"><g clip-path="url(#d1199e04f5)"><g clip-path="url(#e413b812d8)"><path fill="#f8f7ef" d="M 0.457031 25.058594 L 49.640625 0.453125 L 198.214844 297.46875 L 149.035156 322.070312 Z M 0.457031 25.058594 " fill-opacity="1" fill-rule="nonzero"/></g></g></g></g></g></g><g clip-path="url(#0fdbaa2842)"><g transform="matrix(1, 0, 0, 1, 158, 152)"><g clip-path="url(#60fa9478d1)"><g clip-path="url(#b0510d0abf)"><path fill="#f8f7ef" d="M 63.210938 0.636719 L 63.210938 25.304688 L 0.78125 25.304688 L 0.78125 0.636719 Z M 63.210938 0.636719 " fill-opacity="1" fill-rule="nonzero"/></g></g></g></g><g transform="matrix(1, 0, 0, 1, 643, 82)"><g clip-path="url(#b645eb47d0)"><g fill="#f8f7ef" fill-opacity="1"><g transform="translate(6.637282, 344.071489)"><g><path d="M 269.1875 -249.25 L 161.296875 0 L 104.328125 0 L -3.203125 -249.25 L 59.109375 -249.25 L 134.953125 -71.21875 L 211.859375 -249.25 Z M 269.1875 -249.25 "/></g></g></g><g fill="#f8f7ef" fill-opacity="1"><g transform="translate(272.268118, 344.071489)"><g><path d="M 209.359375 -108.953125 C 209.359375 -99.691406 208.410156 -90.671875 206.515625 -81.890625 L 55.546875 -81.890625 C 56.253906 -50.796875 74.53125 -35.25 110.375 -35.25 C 121.300781 -35.25 131.507812 -36.96875 141 -40.40625 C 150.5 -43.851562 158.570312 -48.660156 165.21875 -54.828125 L 183.734375 -23.859375 C 173.992188 -15.078125 162.300781 -8.488281 148.65625 -4.09375 C 135.007812 0.300781 120.707031 2.5 105.75 2.5 C 86.757812 2.5 70.203125 -0.941406 56.078125 -7.828125 C 41.953125 -14.710938 31.09375 -24.503906 23.5 -37.203125 C 15.90625 -49.910156 12.109375 -64.570312 12.109375 -81.1875 C 12.109375 -102.3125 16.796875 -121.359375 26.171875 -138.328125 C 35.546875 -155.296875 48.597656 -168.53125 65.328125 -178.03125 C 82.066406 -187.53125 100.878906 -192.28125 121.765625 -192.28125 C 148.359375 -192.28125 169.601562 -184.859375 185.5 -170.015625 C 201.40625 -155.179688 209.359375 -134.828125 209.359375 -108.953125 Z M 119.640625 -156.671875 C 104.679688 -156.671875 91.921875 -152.632812 81.359375 -144.5625 C 70.796875 -136.488281 63.5 -125.453125 59.46875 -111.453125 L 168.421875 -111.453125 C 168.660156 -125.691406 164.328125 -136.785156 155.421875 -144.734375 C 146.515625 -152.691406 134.585938 -156.671875 119.640625 -156.671875 Z M 119.640625 -156.671875 "/></g></g></g><g fill="#f8f7ef" fill-opacity="1"><g transform="translate(492.671091, 344.071489)"><g><path d="M 126.40625 -95.421875 L 180.53125 0 L 133.515625 0 L 97.203125 -65.875 L 34.890625 0 L -16.375 0 L 79.046875 -98.265625 L 27.421875 -190.140625 L 73.703125 -190.140625 L 107.890625 -127.828125 L 167.703125 -190.140625 L 217.546875 -190.140625 Z M 126.40625 -95.421875 "/></g></g></g></g></g></svg>