<svg xmlns="http://www.w3.org/2000/svg" xmlns:xlink="http://www.w3.org/1999/xlink" width="2000" zoomAndPan="magnify" viewBox="0 0 1500 1499.999933" height="2000" preserveAspectRatio="xMidYMid meet" version="1.0"><defs><clipPath id="0f22aec030"><path d="M 126 126 L 1374.539062 126 L 1374.539062 1374.539062 L 126 1374.539062 Z M 126 126 " clip-rule="nonzero"/></clipPath></defs><g clip-path="url(#0f22aec030)"><path fill="#000000" d="M 126.667969 750.457031 C 126.667969 405.785156 405.945312 126.375 750.457031 126.375 C 1094.96875 126.375 1374.25 405.785156 1374.25 750.457031 C 1374.25 1095.128906 1094.96875 1374.539062 750.457031 1374.539062 C 405.945312 1374.539062 126.667969 1095.128906 126.667969 750.457031 Z M 126.667969 750.457031 " fill-opacity="1" fill-rule="evenodd"/></g><path fill="#ffffff" d="M 541.164062 294.160156 L 967.9375 294.160156 L 967.9375 533.855469 L 541.164062 533.855469 Z M 541.164062 294.160156 " fill-opacity="1" fill-rule="nonzero"/><path fill="#ffffff" d="M 1087.785156 414.007812 C 1087.785156 480.199219 1034.128906 533.855469 967.9375 533.855469 C 901.746094 533.855469 848.089844 480.199219 848.089844 414.007812 C 848.089844 347.820312 901.746094 294.160156 967.9375 294.160156 C 1034.128906 294.160156 1087.785156 347.820312 1087.785156 414.007812 Z M 1087.785156 414.007812 " fill-opacity="1" fill-rule="evenodd"/><path fill="#ffffff" d="M 527.71875 632.074219 L 967.9375 632.074219 L 967.9375 871.765625 L 527.71875 871.765625 Z M 527.71875 632.074219 " fill-opacity="1" fill-rule="nonzero"/><path fill="#ffffff" d="M 652.828125 751.917969 C 652.828125 818.109375 599.035156 871.765625 532.6875 871.765625 C 466.339844 871.765625 412.546875 818.109375 412.546875 751.917969 C 412.546875 685.730469 466.339844 632.074219 532.6875 632.074219 C 599.035156 632.074219 652.828125 685.730469 652.828125 751.917969 Z M 652.828125 751.917969 " fill-opacity="1" fill-rule="evenodd"/><path fill="#ffffff" d="M 1088.367188 751.917969 C 1088.367188 818.109375 1034.578125 871.765625 968.230469 871.765625 C 901.882812 871.765625 848.089844 818.109375 848.089844 751.917969 C 848.089844 685.730469 901.882812 632.074219 968.230469 632.074219 C 1034.578125 632.074219 1088.367188 685.730469 1088.367188 751.917969 Z M 1088.367188 751.917969 " fill-opacity="1" fill-rule="evenodd"/><path fill="#ffffff" d="M 527.71875 967.058594 L 967.9375 967.058594 L 967.9375 1206.753906 L 527.71875 1206.753906 Z M 527.71875 967.058594 " fill-opacity="1" fill-rule="nonzero"/><path fill="#ffffff" d="M 652.828125 1086.90625 C 652.828125 1153.097656 599.035156 1206.753906 532.6875 1206.753906 C 466.339844 1206.753906 412.546875 1153.097656 412.546875 1086.90625 C 412.546875 1020.714844 466.339844 967.058594 532.6875 967.058594 C 599.035156 967.058594 652.828125 1020.714844 652.828125 1086.90625 Z M 652.828125 1086.90625 " fill-opacity="1" fill-rule="evenodd"/><path fill="#ffffff" d="M 1087.785156 1086.90625 C 1087.785156 1153.097656 1034.128906 1206.753906 967.9375 1206.753906 C 901.746094 1206.753906 848.089844 1153.097656 848.089844 1086.90625 C 848.089844 1020.714844 901.746094 967.058594 967.9375 967.058594 C 1034.128906 967.058594 1087.785156 1020.714844 1087.785156 1086.90625 Z M 1087.785156 1086.90625 " fill-opacity="1" fill-rule="evenodd"/><path fill="#ffffff" d="M 652.828125 414.007812 C 652.828125 480.199219 599.035156 533.855469 532.6875 533.855469 C 466.339844 533.855469 412.546875 480.199219 412.546875 414.007812 C 412.546875 347.820312 466.339844 294.160156 532.6875 294.160156 C 599.035156 294.160156 652.828125 347.820312 652.828125 414.007812 Z M 652.828125 414.007812 " fill-opacity="1" fill-rule="evenodd"/></svg>