<svg xmlns="http://www.w3.org/2000/svg" xmlns:xlink="http://www.w3.org/1999/xlink" width="2000" zoomAndPan="magnify" viewBox="0 0 1500 1499.999933" height="2000" preserveAspectRatio="xMidYMid meet" version="1.0"><defs><clipPath id="b01ec21704"><path d="M 750 0 C 335.785156 0 0 335.785156 0 750 C 0 1164.214844 335.785156 1500 750 1500 C 1164.214844 1500 1500 1164.214844 1500 750 C 1500 335.785156 1164.214844 0 750 0 Z M 750 0 " clip-rule="nonzero"/></clipPath><clipPath id="da60736e8b"><path d="M 0 0 L 1500 0 L 1500 1500 L 0 1500 Z M 0 0 " clip-rule="nonzero"/></clipPath><clipPath id="b9cb70e81d"><path d="M 750 0 C 335.785156 0 0 335.785156 0 750 C 0 1164.214844 335.785156 1500 750 1500 C 1164.214844 1500 1500 1164.214844 1500 750 C 1500 335.785156 1164.214844 0 750 0 Z M 750 0 " clip-rule="nonzero"/></clipPath><clipPath id="9ed4d9a457"><rect x="0" width="1500" y="0" height="1500"/></clipPath><clipPath id="57a9c1d76f"><path d="M 2 31 L 483 31 L 483 904 L 2 904 Z M 2 31 " clip-rule="nonzero"/></clipPath><clipPath id="8a6646a3f7"><path d="M 2.464844 61.261719 L 61.414062 31.777344 L 482.863281 874.285156 L 423.914062 903.773438 Z M 2.464844 61.261719 " clip-rule="nonzero"/></clipPath><clipPath id="0ecbc67f21"><path d="M 0.359375 0.558594 L 481 0.558594 L 481 872.960938 L 0.359375 872.960938 Z M 0.359375 0.558594 " clip-rule="nonzero"/></clipPath><clipPath id="f739827bf2"><path d="M 0.464844 30.261719 L 59.414062 0.777344 L 480.863281 843.285156 L 421.914062 872.773438 Z M 0.464844 30.261719 " clip-rule="nonzero"/></clipPath><clipPath id="c4929d023a"><rect x="0" width="481" y="0" height="873"/></clipPath><clipPath id="a9a6b96476"><path d="M 37.800781 10.117188 L 209.597656 10.117188 L 209.597656 77.992188 L 37.800781 77.992188 Z M 37.800781 10.117188 " clip-rule="nonzero"/></clipPath><clipPath id="058483dc30"><path d="M 0.800781 0.117188 L 172.597656 0.117188 L 172.597656 67.992188 L 0.800781 67.992188 Z M 0.800781 0.117188 " clip-rule="nonzero"/></clipPath><clipPath id="f1c56d9836"><rect x="0" width="173" y="0" height="68"/></clipPath><clipPath id="09dc4e1b34"><path d="M 466.699219 654.90625 L 574.582031 654.90625 L 574.582031 928.019531 L 466.699219 928.019531 Z M 466.699219 654.90625 " clip-rule="nonzero"/></clipPath><clipPath id="9ad656fdce"><path d="M 0.699219 0.90625 L 108.582031 0.90625 L 108.582031 274 L 0.699219 274 Z M 0.699219 0.90625 " clip-rule="nonzero"/></clipPath><clipPath id="00012e0042"><rect x="0" width="109" y="0" height="275"/></clipPath><clipPath id="54d2397e31"><path d="M 587.578125 160.394531 L 716.746094 160.394531 L 716.746094 274.027344 L 587.578125 274.027344 Z M 587.578125 160.394531 " clip-rule="nonzero"/></clipPath><clipPath id="444085be97"><path d="M 651.988281 160.394531 L 716.398438 274.027344 L 587.578125 274.027344 Z M 651.988281 160.394531 " clip-rule="nonzero"/></clipPath><clipPath id="f8f30f3107"><path d="M 0.578125 0.394531 L 129.601562 0.394531 L 129.601562 114.027344 L 0.578125 114.027344 Z M 0.578125 0.394531 " clip-rule="nonzero"/></clipPath><clipPath id="c26e0c73f4"><path d="M 64.988281 0.394531 L 129.398438 114.027344 L 0.578125 114.027344 Z M 64.988281 0.394531 " clip-rule="nonzero"/></clipPath><clipPath id="c8f4a0e27f"><rect x="0" width="130" y="0" height="115"/></clipPath><clipPath id="62d6fe9614"><path d="M 978.796875 10.121094 L 1053.546875 10.121094 L 1053.546875 84.871094 L 978.796875 84.871094 Z M 978.796875 10.121094 " clip-rule="nonzero"/></clipPath><clipPath id="29a8e3bc5c"><path d="M 1016.171875 10.121094 C 995.527344 10.121094 978.796875 26.855469 978.796875 47.496094 C 978.796875 68.136719 995.527344 84.871094 1016.171875 84.871094 C 1036.8125 84.871094 1053.546875 68.136719 1053.546875 47.496094 C 1053.546875 26.855469 1036.8125 10.121094 1016.171875 10.121094 Z M 1016.171875 10.121094 " clip-rule="nonzero"/></clipPath><clipPath id="83fdbb460c"><path d="M 0.796875 0.121094 L 75.546875 0.121094 L 75.546875 74.871094 L 0.796875 74.871094 Z M 0.796875 0.121094 " clip-rule="nonzero"/></clipPath><clipPath id="d5ecc91330"><path d="M 38.171875 0.121094 C 17.527344 0.121094 0.796875 16.855469 0.796875 37.496094 C 0.796875 58.136719 17.527344 74.871094 38.171875 74.871094 C 58.8125 74.871094 75.546875 58.136719 75.546875 37.496094 C 75.546875 16.855469 58.8125 0.121094 38.171875 0.121094 Z M 38.171875 0.121094 " clip-rule="nonzero"/></clipPath><clipPath id="dcda392048"><rect x="0" width="76" y="0" height="75"/></clipPath><clipPath id="c6393e352e"><path d="M 201 9 L 260 9 L 260 59 L 201 59 Z M 201 9 " clip-rule="nonzero"/></clipPath><clipPath id="a470de1042"><path d="M 248.847656 0.3125 L 259.378906 47.457031 L 212.046875 58.027344 L 201.519531 10.882812 Z M 248.847656 0.3125 " clip-rule="nonzero"/></clipPath><clipPath id="ca365cdf28"><path d="M 201.519531 10.882812 C 213.9375 8.109375 227.199219 10.425781 237.941406 17.246094 C 248.679688 24.066406 256.421875 35.082031 259.191406 47.5 L 212.046875 58.027344 Z M 201.519531 10.882812 " clip-rule="nonzero"/></clipPath><clipPath id="aedf8fb839"><path d="M 0.320312 0 L 58.398438 0 L 58.398438 49.199219 L 0.320312 49.199219 Z M 0.320312 0 " clip-rule="nonzero"/></clipPath><clipPath id="cedc71c007"><path d="M 47.847656 -8.6875 L 58.378906 38.457031 L 11.046875 49.027344 L 0.519531 1.882812 Z M 47.847656 -8.6875 " clip-rule="nonzero"/></clipPath><clipPath id="9edb050f64"><path d="M 0.519531 1.882812 C 12.9375 -0.890625 26.199219 1.425781 36.941406 8.246094 C 47.679688 15.066406 55.421875 26.082031 58.191406 38.5 L 11.046875 49.027344 Z M 0.519531 1.882812 " clip-rule="nonzero"/></clipPath><clipPath id="f105a6e3e2"><rect x="0" width="59" y="0" height="50"/></clipPath><clipPath id="afaef20a26"><path d="M 568 878 L 627 878 L 627 929 L 568 929 Z M 568 878 " clip-rule="nonzero"/></clipPath><clipPath id="478ace1c96"><path d="M 618.035156 936.167969 L 568.089844 928.148438 L 576.136719 878.007812 L 626.085938 886.023438 Z M 618.035156 936.167969 " clip-rule="nonzero"/></clipPath><clipPath id="b71401c1fd"><path d="M 626.085938 886.023438 C 623.972656 899.179688 616.582031 911.1875 605.785156 918.992188 C 594.992188 926.800781 581.273438 930.066406 568.121094 927.953125 L 576.136719 878.007812 Z M 626.085938 886.023438 " clip-rule="nonzero"/></clipPath><clipPath id="b61d11e7e7"><path d="M 0.0390625 0 L 58.121094 0 L 58.121094 51 L 0.0390625 51 Z M 0.0390625 0 " clip-rule="nonzero"/></clipPath><clipPath id="d514a6c369"><path d="M 50.035156 58.167969 L 0.0898438 50.148438 L 8.136719 0.0078125 L 58.085938 8.023438 Z M 50.035156 58.167969 " clip-rule="nonzero"/></clipPath><clipPath id="33751d1d6f"><path d="M 58.085938 8.023438 C 55.972656 21.179688 48.582031 33.1875 37.785156 40.992188 C 26.992188 48.800781 13.273438 52.066406 0.121094 49.953125 L 8.136719 0.0078125 Z M 58.085938 8.023438 " clip-rule="nonzero"/></clipPath><clipPath id="6e86e59c5a"><rect x="0" width="59" y="0" height="51"/></clipPath><clipPath id="5a809041fb"><path d="M 420 881 L 481 881 L 481 928 L 420 928 Z M 420 881 " clip-rule="nonzero"/></clipPath><clipPath id="707c7432b0"><path d="M 436.289062 940.199219 L 420.808594 896.609375 L 464.570312 881.070312 L 480.046875 924.660156 Z M 436.289062 940.199219 " clip-rule="nonzero"/></clipPath><clipPath id="ec76586919"><path d="M 480.046875 924.660156 C 468.566406 928.738281 455.691406 928.074219 444.691406 922.839844 C 433.691406 917.605469 425.054688 908.03125 420.980469 896.550781 L 464.570312 881.070312 Z M 480.046875 924.660156 " clip-rule="nonzero"/></clipPath><clipPath id="6b8a8c87df"><path d="M 0.921875 0 L 60.199219 0 L 60.199219 47 L 0.921875 47 Z M 0.921875 0 " clip-rule="nonzero"/></clipPath><clipPath id="c9e2880273"><path d="M 16.289062 59.199219 L 0.808594 15.609375 L 44.570312 0.0703125 L 60.046875 43.660156 Z M 16.289062 59.199219 " clip-rule="nonzero"/></clipPath><clipPath id="f98769e3c5"><path d="M 60.046875 43.660156 C 48.566406 47.738281 35.691406 47.074219 24.691406 41.839844 C 13.691406 36.605469 5.054688 27.03125 0.980469 15.550781 L 44.570312 0.0703125 Z M 60.046875 43.660156 " clip-rule="nonzero"/></clipPath><clipPath id="2939ea2dc9"><rect x="0" width="61" y="0" height="47"/></clipPath><clipPath id="e7b661409b"><path d="M 0.453125 10.121094 L 75.203125 10.121094 L 75.203125 87.5 L 0.453125 87.5 Z M 0.453125 10.121094 " clip-rule="nonzero"/></clipPath><clipPath id="037549e4b5"><path d="M 37.828125 10.121094 C 17.1875 10.121094 0.453125 27.386719 0.453125 48.6875 C 0.453125 69.988281 17.1875 87.257812 37.828125 87.257812 C 58.472656 87.257812 75.203125 69.988281 75.203125 48.6875 C 75.203125 27.386719 58.472656 10.121094 37.828125 10.121094 Z M 37.828125 10.121094 " clip-rule="nonzero"/></clipPath><clipPath id="395646b7ba"><path d="M 0.453125 0.121094 L 75.203125 0.121094 L 75.203125 77.480469 L 0.453125 77.480469 Z M 0.453125 0.121094 " clip-rule="nonzero"/></clipPath><clipPath id="b6876c4d25"><path d="M 37.828125 0.121094 C 17.1875 0.121094 0.453125 17.386719 0.453125 38.6875 C 0.453125 59.988281 17.1875 77.257812 37.828125 77.257812 C 58.472656 77.257812 75.203125 59.988281 75.203125 38.6875 C 75.203125 17.386719 58.472656 0.121094 37.828125 0.121094 Z M 37.828125 0.121094 " clip-rule="nonzero"/></clipPath><clipPath id="6306aaca2b"><rect x="0" width="76" y="0" height="78"/></clipPath><clipPath id="1b7ad4d5ac"><path d="M 198 42 L 598 42 L 598 776 L 198 776 Z M 198 42 " clip-rule="nonzero"/></clipPath><clipPath id="4b49773064"><path d="M 198.425781 71.289062 L 257.8125 42.6875 L 597.125 747.246094 L 537.738281 775.84375 Z M 198.425781 71.289062 " clip-rule="nonzero"/></clipPath><clipPath id="1835be2696"><path d="M 0.199219 0.601562 L 399.320312 0.601562 L 399.320312 734 L 0.199219 734 Z M 0.199219 0.601562 " clip-rule="nonzero"/></clipPath><clipPath id="b9d3353d47"><path d="M 0.425781 29.289062 L 59.8125 0.6875 L 399.125 705.246094 L 339.738281 733.84375 Z M 0.425781 29.289062 " clip-rule="nonzero"/></clipPath><clipPath id="a6413b2567"><rect x="0" width="400" y="0" height="734"/></clipPath><clipPath id="6d8456e869"><path d="M 504 17 L 998 17 L 998 733 L 504 733 Z M 504 17 " clip-rule="nonzero"/></clipPath><clipPath id="0c241aff30"><path d="M 942.320312 17.570312 L 997.738281 53.257812 L 560.0625 732.976562 L 504.644531 697.292969 Z M 942.320312 17.570312 " clip-rule="nonzero"/></clipPath><clipPath id="d9a51f0d13"><path d="M 0.441406 0.398438 L 493.878906 0.398438 L 493.878906 716 L 0.441406 716 Z M 0.441406 0.398438 " clip-rule="nonzero"/></clipPath><clipPath id="8a268015e7"><path d="M 438.320312 0.570312 L 493.738281 36.257812 L 56.0625 715.976562 L 0.644531 680.292969 Z M 438.320312 0.570312 " clip-rule="nonzero"/></clipPath><clipPath id="88281e8e8a"><rect x="0" width="494" y="0" height="716"/></clipPath><clipPath id="01a506c037"><path d="M 760.761719 10.113281 L 1016.148438 10.113281 L 1016.148438 124.578125 L 760.761719 124.578125 Z M 760.761719 10.113281 " clip-rule="nonzero"/></clipPath><clipPath id="4809751fe7"><path d="M 0.761719 0.113281 L 256.148438 0.113281 L 256.148438 114.578125 L 0.761719 114.578125 Z M 0.761719 0.113281 " clip-rule="nonzero"/></clipPath><clipPath id="c78397b6f1"><rect x="0" width="257" y="0" height="115"/></clipPath><clipPath id="34745c51d9"><path d="M 501 10 L 1045 10 L 1045 893 L 501 893 Z M 501 10 " clip-rule="nonzero"/></clipPath><clipPath id="3e26ac2055"><path d="M 921.894531 10.121094 L 1044.011719 72.785156 L 623.53125 892.222656 L 501.414062 829.558594 Z M 921.894531 10.121094 " clip-rule="nonzero"/></clipPath><clipPath id="8a1a95355e"><path d="M 0.320312 0 L 543.199219 0 L 543.199219 882.441406 L 0.320312 882.441406 Z M 0.320312 0 " clip-rule="nonzero"/></clipPath><clipPath id="1651c6e10b"><path d="M 420.894531 0.121094 L 543.011719 62.785156 L 122.53125 882.222656 L 0.414062 819.558594 Z M 420.894531 0.121094 " clip-rule="nonzero"/></clipPath><clipPath id="bc1081f90b"><rect x="0" width="544" y="0" height="883"/></clipPath><clipPath id="8fa8eb418c"><path d="M 611 31 L 779 31 L 779 264 L 611 264 Z M 611 31 " clip-rule="nonzero"/></clipPath><clipPath id="93868d7d20"><path d="M 721.078125 31.777344 L 778.898438 63.421875 L 669.632812 263.066406 L 611.8125 231.421875 Z M 721.078125 31.777344 " clip-rule="nonzero"/></clipPath><clipPath id="31a5fec332"><path d="M 0.71875 0.558594 L 168 0.558594 L 168 232.160156 L 0.71875 232.160156 Z M 0.71875 0.558594 " clip-rule="nonzero"/></clipPath><clipPath id="cc8db0bae4"><path d="M 110.078125 0.777344 L 167.898438 32.421875 L 58.632812 232.066406 L 0.8125 200.421875 Z M 110.078125 0.777344 " clip-rule="nonzero"/></clipPath><clipPath id="7dc7451f76"><rect x="0" width="168" y="0" height="233"/></clipPath><clipPath id="fd77be3814"><path d="M 625.160156 208.113281 L 852.75 208.113281 L 852.75 274.023438 L 625.160156 274.023438 Z M 625.160156 208.113281 " clip-rule="nonzero"/></clipPath><clipPath id="7acc486953"><path d="M 0.160156 0.113281 L 227.75 0.113281 L 227.75 66.023438 L 0.160156 66.023438 Z M 0.160156 0.113281 " clip-rule="nonzero"/></clipPath><clipPath id="46f1b3c9d7"><rect x="0" width="228" y="0" height="67"/></clipPath><clipPath id="232f1e428f"><path d="M 718.734375 10.121094 L 793.488281 10.121094 L 793.488281 84.871094 L 718.734375 84.871094 Z M 718.734375 10.121094 " clip-rule="nonzero"/></clipPath><clipPath id="a589aadd3c"><path d="M 756.109375 10.121094 C 735.46875 10.121094 718.734375 26.855469 718.734375 47.496094 C 718.734375 68.136719 735.46875 84.871094 756.109375 84.871094 C 776.753906 84.871094 793.488281 68.136719 793.488281 47.496094 C 793.488281 26.855469 776.753906 10.121094 756.109375 10.121094 Z M 756.109375 10.121094 " clip-rule="nonzero"/></clipPath><clipPath id="782640cbe4"><path d="M 0.734375 0.121094 L 75.488281 0.121094 L 75.488281 74.871094 L 0.734375 74.871094 Z M 0.734375 0.121094 " clip-rule="nonzero"/></clipPath><clipPath id="7e945eeb81"><path d="M 38.109375 0.121094 C 17.46875 0.121094 0.734375 16.855469 0.734375 37.496094 C 0.734375 58.136719 17.46875 74.871094 38.109375 74.871094 C 58.753906 74.871094 75.488281 58.136719 75.488281 37.496094 C 75.488281 16.855469 58.753906 0.121094 38.109375 0.121094 Z M 38.109375 0.121094 " clip-rule="nonzero"/></clipPath><clipPath id="30652d3474"><rect x="0" width="76" y="0" height="75"/></clipPath><clipPath id="ad2b03ab71"><path d="M 695.339844 87.273438 L 945.09375 87.273438 L 945.09375 223.625 L 695.339844 223.625 Z M 695.339844 87.273438 " clip-rule="nonzero"/></clipPath><clipPath id="f1977fe802"><path d="M 0.339844 0.273438 L 250.09375 0.273438 L 250.09375 136.625 L 0.339844 136.625 Z M 0.339844 0.273438 " clip-rule="nonzero"/></clipPath><clipPath id="f6ee0e837c"><rect x="0" width="251" y="0" height="137"/></clipPath><clipPath id="b1aeb4f7c2"><path d="M 532.0625 752.203125 L 611.773438 752.203125 L 611.773438 903.773438 L 532.0625 903.773438 Z M 532.0625 752.203125 " clip-rule="nonzero"/></clipPath><clipPath id="cb937cc5a4"><path d="M 0.0625 0.203125 L 79.773438 0.203125 L 79.773438 151.773438 L 0.0625 151.773438 Z M 0.0625 0.203125 " clip-rule="nonzero"/></clipPath><clipPath id="8cd7bdfebc"><rect x="0" width="80" y="0" height="152"/></clipPath><clipPath id="987164c350"><path d="M 442.960938 755.4375 L 522.671875 755.4375 L 522.671875 907.007812 L 442.960938 907.007812 Z M 442.960938 755.4375 " clip-rule="nonzero"/></clipPath><clipPath id="ea072ca0d2"><path d="M 0.960938 0.4375 L 80.671875 0.4375 L 80.671875 152.007812 L 0.960938 152.007812 Z M 0.960938 0.4375 " clip-rule="nonzero"/></clipPath><clipPath id="8928c91270"><rect x="0" width="81" y="0" height="153"/></clipPath><clipPath id="05de8a99ff"><path d="M 60 13 L 605 13 L 605 899 L 60 899 Z M 60 13 " clip-rule="nonzero"/></clipPath><clipPath id="1cc07f117c"><path d="M 60.515625 81.351562 L 195.867188 13.644531 L 604.800781 831.136719 L 469.453125 898.839844 Z M 60.515625 81.351562 " clip-rule="nonzero"/></clipPath><clipPath id="d47a706820"><path d="M 0.441406 0.558594 L 545 0.558594 L 545 885.917969 L 0.441406 885.917969 Z M 0.441406 0.558594 " clip-rule="nonzero"/></clipPath><clipPath id="af872301d1"><path d="M 0.515625 68.351562 L 135.867188 0.644531 L 544.800781 818.136719 L 409.453125 885.839844 Z M 0.515625 68.351562 " clip-rule="nonzero"/></clipPath><clipPath id="fc8aa4f3c9"><rect x="0" width="545" y="0" height="886"/></clipPath><clipPath id="6c749cb80c"><path d="M 75.175781 33.410156 L 246.972656 33.410156 L 246.972656 101.289062 L 75.175781 101.289062 Z M 75.175781 33.410156 " clip-rule="nonzero"/></clipPath><clipPath id="87ffed4cf7"><path d="M 0.175781 0.410156 L 171.972656 0.410156 L 171.972656 68.289062 L 0.175781 68.289062 Z M 0.175781 0.410156 " clip-rule="nonzero"/></clipPath><clipPath id="72b37bc4e1"><rect x="0" width="172" y="0" height="69"/></clipPath><clipPath id="9bda8fe382"><rect x="0" width="1054" y="0" height="941"/></clipPath></defs><g clip-path="url(#b01ec21704)"><g transform="matrix(1, 0, 0, 1, 0, 0.000000000000112861)"><g clip-path="url(#9ed4d9a457)"><g clip-path="url(#da60736e8b)"><g clip-path="url(#b9cb70e81d)"><rect x="-330" width="2160" fill="#000734" height="2159.999904" y="-329.999985" fill-opacity="1"/></g></g></g></g><path stroke-linecap="butt" transform="matrix(0.75, 0, 0, 0.75, 0.00003335, -0.00002)" fill="none" stroke-linejoin="miter" d="M 999.999978 0.0000266667 C 447.713507 0.0000266667 -0.0000444667 447.713578 -0.0000444667 1000.000049 C -0.0000444667 1552.286519 447.713507 2000.000071 999.999978 2000.000071 C 1552.286448 2000.000071 2000 1552.286519 2000 1000.000049 C 2000 447.713578 1552.286448 0.0000266667 999.999978 0.0000266667 Z M 999.999978 0.0000266667 " stroke="#faf7ef" stroke-width="60" stroke-opacity="1" stroke-miterlimit="4"/></g><g transform="matrix(1, 0, 0, 1, 223, 387)"><g clip-path="url(#9bda8fe382)"><g clip-path="url(#57a9c1d76f)"><g clip-path="url(#8a6646a3f7)"><g transform="matrix(1, 0, 0, 1, 2, 31)"><g clip-path="url(#c4929d023a)"><g clip-path="url(#0ecbc67f21)"><g clip-path="url(#f739827bf2)"><path fill="#faf7ef" d="M 0.464844 30.261719 L 59.414062 0.777344 L 480.886719 843.332031 L 421.9375 872.820312 Z M 0.464844 30.261719 " fill-opacity="1" fill-rule="nonzero"/></g></g></g></g></g></g><g clip-path="url(#a9a6b96476)"><g transform="matrix(1, 0, 0, 1, 37, 10)"><g clip-path="url(#f1c56d9836)"><g clip-path="url(#058483dc30)"><path fill="#faf7ef" d="M 172.597656 0.117188 L 172.597656 67.992188 L 0.785156 67.992188 L 0.785156 0.117188 Z M 172.597656 0.117188 " fill-opacity="1" fill-rule="nonzero"/></g></g></g></g><g clip-path="url(#09dc4e1b34)"><g transform="matrix(1, 0, 0, 1, 466, 654)"><g clip-path="url(#00012e0042)"><g clip-path="url(#9ad656fdce)"><path fill="#faf7ef" d="M 108.582031 0.90625 L 108.582031 273.980469 L 0.699219 273.980469 L 0.699219 0.90625 Z M 108.582031 0.90625 " fill-opacity="1" fill-rule="nonzero"/></g></g></g></g><g clip-path="url(#54d2397e31)"><g clip-path="url(#444085be97)"><g transform="matrix(1, 0, 0, 1, 587, 160)"><g clip-path="url(#c8f4a0e27f)"><g clip-path="url(#f8f30f3107)"><g clip-path="url(#c26e0c73f4)"><path fill="#faf7ef" d="M 0.578125 0.394531 L 129.304688 0.394531 L 129.304688 114.027344 L 0.578125 114.027344 Z M 0.578125 0.394531 " fill-opacity="1" fill-rule="nonzero"/></g></g></g></g></g></g><g clip-path="url(#62d6fe9614)"><g clip-path="url(#29a8e3bc5c)"><g transform="matrix(1, 0, 0, 1, 978, 10)"><g clip-path="url(#dcda392048)"><g clip-path="url(#83fdbb460c)"><g clip-path="url(#d5ecc91330)"><path fill="#faf7ef" d="M 0.796875 0.121094 L 75.546875 0.121094 L 75.546875 74.871094 L 0.796875 74.871094 Z M 0.796875 0.121094 " fill-opacity="1" fill-rule="nonzero"/></g></g></g></g></g></g><g clip-path="url(#c6393e352e)"><g clip-path="url(#a470de1042)"><g clip-path="url(#ca365cdf28)"><g transform="matrix(1, 0, 0, 1, 201, 9)"><g clip-path="url(#f105a6e3e2)"><g clip-path="url(#aedf8fb839)"><g clip-path="url(#cedc71c007)"><g clip-path="url(#9edb050f64)"><path fill="#faf7ef" d="M 47.664062 -8.644531 L 58.191406 38.5 L 11.046875 49.027344 L 0.519531 1.882812 Z M 47.664062 -8.644531 " fill-opacity="1" fill-rule="nonzero"/></g></g></g></g></g></g></g></g><g clip-path="url(#afaef20a26)"><g clip-path="url(#478ace1c96)"><g clip-path="url(#b71401c1fd)"><g transform="matrix(1, 0, 0, 1, 568, 878)"><g clip-path="url(#6e86e59c5a)"><g clip-path="url(#b61d11e7e7)"><g clip-path="url(#d514a6c369)"><g clip-path="url(#33751d1d6f)"><path fill="#faf7ef" d="M 50.066406 57.972656 L 0.121094 49.953125 L 8.136719 0.0078125 L 58.085938 8.023438 Z M 50.066406 57.972656 " fill-opacity="1" fill-rule="nonzero"/></g></g></g></g></g></g></g></g><g clip-path="url(#5a809041fb)"><g clip-path="url(#707c7432b0)"><g clip-path="url(#ec76586919)"><g transform="matrix(1, 0, 0, 1, 420, 881)"><g clip-path="url(#2939ea2dc9)"><g clip-path="url(#6b8a8c87df)"><g clip-path="url(#c9e2880273)"><g clip-path="url(#f98769e3c5)"><path fill="#faf7ef" d="M 16.457031 59.140625 L 0.980469 15.550781 L 44.570312 0.0703125 L 60.046875 43.660156 Z M 16.457031 59.140625 " fill-opacity="1" fill-rule="nonzero"/></g></g></g></g></g></g></g></g><g clip-path="url(#e7b661409b)"><g clip-path="url(#037549e4b5)"><g transform="matrix(1, 0, 0, 1, -0.000000000000028422, 10)"><g clip-path="url(#6306aaca2b)"><g clip-path="url(#395646b7ba)"><g clip-path="url(#b6876c4d25)"><path fill="#faf7ef" d="M 0.453125 0.121094 L 75.203125 0.121094 L 75.203125 77.207031 L 0.453125 77.207031 Z M 0.453125 0.121094 " fill-opacity="1" fill-rule="nonzero"/></g></g></g></g></g></g><g clip-path="url(#1b7ad4d5ac)"><g clip-path="url(#4b49773064)"><g transform="matrix(1, 0, 0, 1, 198, 42)"><g clip-path="url(#a6413b2567)"><g clip-path="url(#1835be2696)"><g clip-path="url(#b9d3353d47)"><path fill="#faf7ef" d="M 0.425781 29.289062 L 59.8125 0.6875 L 399.097656 705.191406 L 339.714844 733.789062 Z M 0.425781 29.289062 " fill-opacity="1" fill-rule="nonzero"/></g></g></g></g></g></g><g clip-path="url(#6d8456e869)"><g clip-path="url(#0c241aff30)"><g transform="matrix(1, 0, 0, 1, 504, 17)"><g clip-path="url(#88281e8e8a)"><g clip-path="url(#d9a51f0d13)"><g clip-path="url(#8a268015e7)"><path fill="#faf7ef" d="M 438.320312 0.570312 L 493.738281 36.257812 L 56.050781 715.996094 L 0.632812 680.3125 Z M 438.320312 0.570312 " fill-opacity="1" fill-rule="nonzero"/></g></g></g></g></g></g><g clip-path="url(#01a506c037)"><g transform="matrix(1, 0, 0, 1, 760, 10)"><g clip-path="url(#c78397b6f1)"><g clip-path="url(#4809751fe7)"><path fill="#faf7ef" d="M 256.148438 0.113281 L 256.148438 114.578125 L 0.832031 114.578125 L 0.832031 0.113281 Z M 256.148438 0.113281 " fill-opacity="1" fill-rule="nonzero"/></g></g></g></g><g clip-path="url(#34745c51d9)"><g clip-path="url(#3e26ac2055)"><g transform="matrix(1, 0, 0, 1, 501, 10)"><g clip-path="url(#bc1081f90b)"><g clip-path="url(#8a1a95355e)"><g clip-path="url(#1651c6e10b)"><path fill="#faf7ef" d="M 420.894531 0.121094 L 543.011719 62.785156 L 122.484375 882.316406 L 0.367188 819.652344 Z M 420.894531 0.121094 " fill-opacity="1" fill-rule="nonzero"/></g></g></g></g></g></g><g clip-path="url(#8fa8eb418c)"><g clip-path="url(#93868d7d20)"><g transform="matrix(1, 0, 0, 1, 611, 31)"><g clip-path="url(#7dc7451f76)"><g clip-path="url(#31a5fec332)"><g clip-path="url(#cc8db0bae4)"><path fill="#faf7ef" d="M 110.078125 0.777344 L 167.898438 32.421875 L 58.621094 232.082031 L 0.804688 200.4375 Z M 110.078125 0.777344 " fill-opacity="1" fill-rule="nonzero"/></g></g></g></g></g></g><g clip-path="url(#fd77be3814)"><g transform="matrix(1, 0, 0, 1, 625, 208)"><g clip-path="url(#46f1b3c9d7)"><g clip-path="url(#7acc486953)"><path fill="#faf7ef" d="M 227.75 0.113281 L 227.75 66.023438 L 0.144531 66.023438 L 0.144531 0.113281 Z M 227.75 0.113281 " fill-opacity="1" fill-rule="nonzero"/></g></g></g></g><g clip-path="url(#232f1e428f)"><g clip-path="url(#a589aadd3c)"><g transform="matrix(1, 0, 0, 1, 718, 10)"><g clip-path="url(#30652d3474)"><g clip-path="url(#782640cbe4)"><g clip-path="url(#7e945eeb81)"><path fill="#faf7ef" d="M 0.734375 0.121094 L 75.488281 0.121094 L 75.488281 74.871094 L 0.734375 74.871094 Z M 0.734375 0.121094 " fill-opacity="1" fill-rule="nonzero"/></g></g></g></g></g></g><g clip-path="url(#ad2b03ab71)"><g transform="matrix(1, 0, 0, 1, 695, 87)"><g clip-path="url(#f6ee0e837c)"><g clip-path="url(#f1977fe802)"><path fill="#faf7ef" d="M 250.09375 0.273438 L 250.09375 136.625 L 0.292969 136.625 L 0.292969 0.273438 Z M 250.09375 0.273438 " fill-opacity="1" fill-rule="nonzero"/></g></g></g></g><g clip-path="url(#b1aeb4f7c2)"><g transform="matrix(1, 0, 0, 1, 532, 752)"><g clip-path="url(#8cd7bdfebc)"><g clip-path="url(#cb937cc5a4)"><path fill="#faf7ef" d="M 79.773438 0.203125 L 79.773438 151.839844 L 0.0625 151.839844 L 0.0625 0.203125 Z M 79.773438 0.203125 " fill-opacity="1" fill-rule="nonzero"/></g></g></g></g><g clip-path="url(#987164c350)"><g transform="matrix(1, 0, 0, 1, 442, 755)"><g clip-path="url(#8928c91270)"><g clip-path="url(#ea072ca0d2)"><path fill="#faf7ef" d="M 80.671875 0.4375 L 80.671875 152.074219 L 0.960938 152.074219 L 0.960938 0.4375 Z M 80.671875 0.4375 " fill-opacity="1" fill-rule="nonzero"/></g></g></g></g><g clip-path="url(#05de8a99ff)"><g clip-path="url(#1cc07f117c)"><g transform="matrix(1, 0, 0, 1, 60, 13)"><g clip-path="url(#fc8aa4f3c9)"><g clip-path="url(#d47a706820)"><g clip-path="url(#af872301d1)"><path fill="#faf7ef" d="M 0.515625 68.351562 L 135.867188 0.644531 L 544.746094 818.023438 L 409.398438 885.730469 Z M 0.515625 68.351562 " fill-opacity="1" fill-rule="nonzero"/></g></g></g></g></g></g><g clip-path="url(#6c749cb80c)"><g transform="matrix(1, 0, 0, 1, 75, 33)"><g clip-path="url(#72b37bc4e1)"><g clip-path="url(#87ffed4cf7)"><path fill="#faf7ef" d="M 171.972656 0.410156 L 171.972656 68.289062 L 0.160156 68.289062 L 0.160156 0.410156 Z M 171.972656 0.410156 " fill-opacity="1" fill-rule="nonzero"/></g></g></g></g></g></g></svg>