<svg xmlns="http://www.w3.org/2000/svg" xmlns:xlink="http://www.w3.org/1999/xlink" width="2000" zoomAndPan="magnify" viewBox="0 0 1500 607.92" height="800" preserveAspectRatio="xMidYMid meet" version="1.0"><defs><g/><clipPath id="ac0089195e"><path d="M 0.652344 87.65625 L 64.289062 87.65625 L 64.289062 292.351562 L 0.652344 292.351562 Z M 0.652344 87.65625 " clip-rule="nonzero"/></clipPath><clipPath id="83fdfec99d"><path d="M 0.652344 0.65625 L 64.289062 0.65625 L 64.289062 205.351562 L 0.652344 205.351562 Z M 0.652344 0.65625 " clip-rule="nonzero"/></clipPath><clipPath id="611256926e"><rect x="0" width="65" y="0" height="206"/></clipPath><clipPath id="0c197f8a29"><path d="M 0.640625 50 L 87.292969 50 L 87.292969 133.75 L 0.640625 133.75 Z M 0.640625 50 " clip-rule="nonzero"/></clipPath><clipPath id="36796f7754"><path d="M 17.152344 50.054688 L 70.695312 50.054688 C 79.808594 50.054688 87.195312 57.441406 87.195312 66.554688 L 87.195312 117.253906 C 87.195312 126.367188 79.808594 133.75 70.695312 133.75 L 17.152344 133.75 C 8.039062 133.75 0.652344 126.367188 0.652344 117.253906 L 0.652344 66.554688 C 0.652344 57.441406 8.039062 50.054688 17.152344 50.054688 Z M 17.152344 50.054688 " clip-rule="nonzero"/></clipPath><clipPath id="ca379da26c"><path d="M 0.640625 0 L 87.269531 0 L 87.269531 83.75 L 0.640625 83.75 Z M 0.640625 0 " clip-rule="nonzero"/></clipPath><clipPath id="bf86d1e572"><path d="M 17.152344 0.0546875 L 70.695312 0.0546875 C 79.808594 0.0546875 87.195312 7.441406 87.195312 16.554688 L 87.195312 67.253906 C 87.195312 76.367188 79.808594 83.75 70.695312 83.75 L 17.152344 83.75 C 8.039062 83.75 0.652344 76.367188 0.652344 67.253906 L 0.652344 16.554688 C 0.652344 7.441406 8.039062 0.0546875 17.152344 0.0546875 Z M 17.152344 0.0546875 " clip-rule="nonzero"/></clipPath><clipPath id="7f241475c1"><rect x="0" width="88" y="0" height="84"/></clipPath><clipPath id="14272a8aae"><path d="M 20.402344 50.054688 L 215.585938 50.054688 L 215.585938 133.75 L 20.402344 133.75 Z M 20.402344 50.054688 " clip-rule="nonzero"/></clipPath><clipPath id="c28145f649"><path d="M 62.25 50.054688 L 173.546875 50.054688 C 196.660156 50.054688 215.394531 68.792969 215.394531 91.902344 C 215.394531 115.015625 196.660156 133.75 173.546875 133.75 L 62.25 133.75 C 39.136719 133.75 20.402344 115.015625 20.402344 91.902344 C 20.402344 68.792969 39.136719 50.054688 62.25 50.054688 Z M 62.25 50.054688 " clip-rule="nonzero"/></clipPath><clipPath id="0f2a03c645"><path d="M 0.402344 0.0546875 L 195.410156 0.0546875 L 195.410156 83.75 L 0.402344 83.75 Z M 0.402344 0.0546875 " clip-rule="nonzero"/></clipPath><clipPath id="9b96c2b8aa"><path d="M 42.25 0.0546875 L 153.546875 0.0546875 C 176.660156 0.0546875 195.394531 18.792969 195.394531 41.902344 C 195.394531 65.015625 176.660156 83.75 153.546875 83.75 L 42.25 83.75 C 19.136719 83.75 0.402344 65.015625 0.402344 41.902344 C 0.402344 18.792969 19.136719 0.0546875 42.25 0.0546875 Z M 42.25 0.0546875 " clip-rule="nonzero"/></clipPath><clipPath id="ee704e8132"><rect x="0" width="196" y="0" height="84"/></clipPath><clipPath id="cfea2edd94"><path d="M 177.058594 171.0625 L 215.378906 171.0625 L 215.378906 215.222656 L 177.058594 215.222656 Z M 177.058594 171.0625 " clip-rule="nonzero"/></clipPath><clipPath id="373bf5fd2b"><path d="M 215.378906 171.191406 C 215.378906 182.789062 211.292969 194.128906 204.15625 202.328125 C 197.019531 210.527344 187.148438 215.222656 177.058594 215.222656 L 177.058594 171.191406 Z M 215.378906 171.191406 " clip-rule="nonzero"/></clipPath><clipPath id="c8d4b230db"><path d="M 0.0585938 0.078125 L 38.378906 0.078125 L 38.378906 44.222656 L 0.0585938 44.222656 Z M 0.0585938 0.078125 " clip-rule="nonzero"/></clipPath><clipPath id="8b436888fd"><path d="M 38.378906 0.191406 C 38.378906 11.789062 34.292969 23.128906 27.15625 31.328125 C 20.019531 39.527344 10.148438 44.222656 0.0585938 44.222656 L 0.0585938 0.191406 Z M 38.378906 0.191406 " clip-rule="nonzero"/></clipPath><clipPath id="daccfcc542"><rect x="0" width="39" y="0" height="45"/></clipPath><clipPath id="7b63180100"><path d="M 181.878906 91.902344 L 215.394531 91.902344 L 215.394531 172.835938 L 181.878906 172.835938 Z M 181.878906 91.902344 " clip-rule="nonzero"/></clipPath><clipPath id="462978cb0e"><path d="M 0.878906 0.902344 L 34.394531 0.902344 L 34.394531 81.835938 L 0.878906 81.835938 Z M 0.878906 0.902344 " clip-rule="nonzero"/></clipPath><clipPath id="03f773da9c"><rect x="0" width="35" y="0" height="82"/></clipPath><clipPath id="4a42135d7b"><path d="M 171 131 L 186 131 L 186 145 L 171 145 Z M 171 131 " clip-rule="nonzero"/></clipPath><clipPath id="b5e18df062"><path d="M 171.742188 140.707031 L 181.375 131.070312 L 185.109375 134.804688 L 175.472656 144.441406 Z M 171.742188 140.707031 " clip-rule="nonzero"/></clipPath><clipPath id="9c5562e34a"><path d="M 0.738281 0.00390625 L 14.175781 0.00390625 L 14.175781 13.441406 L 0.738281 13.441406 Z M 0.738281 0.00390625 " clip-rule="nonzero"/></clipPath><clipPath id="16ebf366e4"><path d="M 0.742188 9.707031 L 10.375 0.0703125 L 14.109375 3.804688 L 4.472656 13.441406 Z M 0.742188 9.707031 " clip-rule="nonzero"/></clipPath><clipPath id="e70c634b60"><rect x="0" width="15" y="0" height="14"/></clipPath><clipPath id="2760df62fc"><path d="M 171.484375 128.433594 L 185.109375 128.433594 L 185.109375 133.710938 L 171.484375 133.710938 Z M 171.484375 128.433594 " clip-rule="nonzero"/></clipPath><clipPath id="211a876051"><path d="M 0.484375 0.433594 L 14.109375 0.433594 L 14.109375 5.710938 L 0.484375 5.710938 Z M 0.484375 0.433594 " clip-rule="nonzero"/></clipPath><clipPath id="219ed010ab"><rect x="0" width="15" y="0" height="6"/></clipPath><clipPath id="456ae12479"><path d="M 177.0625 137.757812 L 186.667969 137.757812 L 186.667969 172.835938 L 177.0625 172.835938 Z M 177.0625 137.757812 " clip-rule="nonzero"/></clipPath><clipPath id="11fc763898"><path d="M 0.0625 0.757812 L 9.667969 0.757812 L 9.667969 35.835938 L 0.0625 35.835938 Z M 0.0625 0.757812 " clip-rule="nonzero"/></clipPath><clipPath id="f7b8977c53"><rect x="0" width="10" y="0" height="36"/></clipPath><clipPath id="67dd5ae2b8"><path d="M 96 134 L 178 134 L 178 216 L 96 216 Z M 96 134 " clip-rule="nonzero"/></clipPath><clipPath id="8170b4b4ba"><path d="M 217.554688 174.882812 L 136.816406 255.617188 L 96.761719 215.5625 L 177.5 134.828125 Z M 217.554688 174.882812 " clip-rule="nonzero"/></clipPath><clipPath id="9e88aab75a"><path d="M 177.222656 215.210938 L 96.839844 215.484375 L 177.5 134.828125 Z M 177.222656 215.210938 " clip-rule="nonzero"/></clipPath><clipPath id="7d854decbe"><path d="M 0.628906 0.605469 L 81.738281 0.605469 L 81.738281 81.714844 L 0.628906 81.714844 Z M 0.628906 0.605469 " clip-rule="nonzero"/></clipPath><clipPath id="70217df845"><path d="M 121.554688 40.882812 L 40.816406 121.617188 L 0.761719 81.5625 L 81.5 0.828125 Z M 121.554688 40.882812 " clip-rule="nonzero"/></clipPath><clipPath id="fd7c114b44"><path d="M 81.222656 81.210938 L 0.839844 81.484375 L 81.5 0.828125 Z M 81.222656 81.210938 " clip-rule="nonzero"/></clipPath><clipPath id="0b6edba2e8"><rect x="0" width="82" y="0" height="82"/></clipPath><clipPath id="3720875aef"><rect x="0" width="1224" y="0" height="324"/></clipPath></defs><g transform="matrix(1, 0, 0, 1, 142, 138)"><g clip-path="url(#3720875aef)"><g fill="#000734" fill-opacity="1"><g transform="translate(310.408176, 256.449548)"><g><path d="M 100.96875 -185 C 117 -185 130.957031 -182.359375 142.84375 -177.078125 C 154.738281 -171.796875 163.859375 -164.21875 170.203125 -154.34375 C 176.546875 -144.476562 179.71875 -132.765625 179.71875 -119.203125 C 179.71875 -105.804688 176.546875 -94.128906 170.203125 -84.171875 C 163.859375 -74.222656 154.738281 -66.601562 142.84375 -61.3125 C 130.957031 -56.03125 117 -53.390625 100.96875 -53.390625 L 59.203125 -53.390625 L 59.203125 0 L 24.84375 0 L 24.84375 -185 Z M 99.375 -82.453125 C 114.351562 -82.453125 125.71875 -85.625 133.46875 -91.96875 C 141.21875 -98.3125 145.09375 -107.390625 145.09375 -119.203125 C 145.09375 -131.003906 141.21875 -140.078125 133.46875 -146.421875 C 125.71875 -152.765625 114.351562 -155.9375 99.375 -155.9375 L 59.203125 -155.9375 L 59.203125 -82.453125 Z M 99.375 -82.453125 "/></g></g></g><g fill="#000734" fill-opacity="1"><g transform="translate(498.319482, 256.449548)"><g><path d="M 53.125 -120.515625 C 62.632812 -135.316406 79.375 -142.71875 103.34375 -142.71875 L 103.34375 -111.265625 C 100.519531 -111.796875 97.960938 -112.0625 95.671875 -112.0625 C 82.804688 -112.0625 72.757812 -108.316406 65.53125 -100.828125 C 58.3125 -93.335938 54.703125 -82.546875 54.703125 -68.453125 L 54.703125 0 L 21.671875 0 L 21.671875 -141.140625 L 53.125 -141.140625 Z M 53.125 -120.515625 "/></g></g></g><g fill="#000734" fill-opacity="1"><g transform="translate(606.679026, 256.449548)"><g><path d="M 85.109375 1.84375 C 70.835938 1.84375 57.972656 -1.238281 46.515625 -7.40625 C 35.066406 -13.570312 26.125 -22.160156 19.6875 -33.171875 C 13.257812 -44.179688 10.046875 -56.644531 10.046875 -70.5625 C 10.046875 -84.488281 13.257812 -96.910156 19.6875 -107.828125 C 26.125 -118.753906 35.066406 -127.300781 46.515625 -133.46875 C 57.972656 -139.632812 70.835938 -142.71875 85.109375 -142.71875 C 99.554688 -142.71875 112.503906 -139.632812 123.953125 -133.46875 C 135.410156 -127.300781 144.351562 -118.753906 150.78125 -107.828125 C 157.207031 -96.910156 160.421875 -84.488281 160.421875 -70.5625 C 160.421875 -56.644531 157.207031 -44.179688 150.78125 -33.171875 C 144.351562 -22.160156 135.410156 -13.570312 123.953125 -7.40625 C 112.503906 -1.238281 99.554688 1.84375 85.109375 1.84375 Z M 85.109375 -26.421875 C 97.265625 -26.421875 107.304688 -30.472656 115.234375 -38.578125 C 123.160156 -46.691406 127.125 -57.351562 127.125 -70.5625 C 127.125 -83.78125 123.160156 -94.441406 115.234375 -102.546875 C 107.304688 -110.648438 97.265625 -114.703125 85.109375 -114.703125 C 72.941406 -114.703125 62.9375 -110.648438 55.09375 -102.546875 C 47.257812 -94.441406 43.34375 -83.78125 43.34375 -70.5625 C 43.34375 -57.351562 47.257812 -46.691406 55.09375 -38.578125 C 62.9375 -30.472656 72.941406 -26.421875 85.109375 -26.421875 Z M 85.109375 -26.421875 "/></g></g></g><g fill="#000734" fill-opacity="1"><g transform="translate(777.15643, 256.449548)"><g><path d="M 76.640625 1.578125 C 63.253906 1.578125 51.535156 -0.929688 41.484375 -5.953125 C 31.441406 -10.972656 23.691406 -18.019531 18.234375 -27.09375 C 12.773438 -36.164062 10.046875 -46.78125 10.046875 -58.9375 C 10.046875 -74.613281 13.566406 -88.707031 20.609375 -101.21875 C 27.660156 -113.726562 37.441406 -123.550781 49.953125 -130.6875 C 62.460938 -137.832031 76.644531 -141.40625 92.5 -141.40625 C 120.164062 -141.40625 139.375 -131.269531 150.125 -111 L 128.71875 -99.109375 C 121.3125 -112.503906 108.625 -119.203125 90.65625 -119.203125 C 80.257812 -119.203125 70.875 -116.691406 62.5 -111.671875 C 54.132812 -106.648438 47.570312 -99.644531 42.8125 -90.65625 C 38.0625 -81.664062 35.6875 -71.445312 35.6875 -60 C 35.6875 -47.664062 39.335938 -38.015625 46.640625 -31.046875 C 53.953125 -24.085938 64.304688 -20.609375 77.703125 -20.609375 C 86.160156 -20.609375 94.046875 -22.28125 101.359375 -25.625 C 108.671875 -28.976562 114.707031 -33.914062 119.46875 -40.4375 L 137.96875 -27.21875 C 131.445312 -18.238281 122.722656 -11.191406 111.796875 -6.078125 C 100.867188 -0.972656 89.148438 1.578125 76.640625 1.578125 Z M 76.640625 1.578125 "/></g></g></g><g fill="#000734" fill-opacity="1"><g transform="translate(928.066924, 256.449548)"><g><path d="M 168.625 -140.078125 L 140.875 0 L 116.5625 0 L 119.984375 -17.96875 C 113.640625 -11.445312 106.195312 -6.554688 97.65625 -3.296875 C 89.113281 -0.046875 79.820312 1.578125 69.78125 1.578125 C 54.269531 1.578125 42.019531 -2.5625 33.03125 -10.84375 C 24.050781 -19.125 19.5625 -30.660156 19.5625 -45.453125 C 19.5625 -50.390625 20.085938 -55.765625 21.140625 -61.578125 L 36.734375 -140.078125 L 62.109375 -140.078125 L 46.515625 -61.3125 C 45.628906 -56.5625 45.1875 -52.597656 45.1875 -49.421875 C 45.1875 -40.265625 47.875 -33.257812 53.25 -28.40625 C 58.625 -23.5625 66.597656 -21.140625 77.171875 -21.140625 C 90.566406 -21.140625 101.710938 -24.925781 110.609375 -32.5 C 119.503906 -40.082031 125.453125 -51.1875 128.453125 -65.8125 L 143.25 -140.078125 Z M 168.625 -140.078125 "/></g></g></g><g fill="#000734" fill-opacity="1"><g transform="translate(1106.992302, 256.449548)"><g><path d="M 58.40625 -119.203125 C 64.570312 -126.953125 72.148438 -132.585938 81.140625 -136.109375 C 90.128906 -139.640625 101.050781 -141.40625 113.90625 -141.40625 L 109.15625 -116.8125 C 107.570312 -116.988281 105.367188 -117.078125 102.546875 -117.078125 C 73.472656 -117.078125 55.851562 -101.394531 49.6875 -70.03125 L 35.6875 0 L 10.3125 0 L 38.0625 -140.078125 L 62.375 -140.078125 Z M 58.40625 -119.203125 "/></g></g></g><g clip-path="url(#ac0089195e)"><g transform="matrix(1, 0, 0, 1, 0, 87)"><g clip-path="url(#611256926e)"><g clip-path="url(#83fdfec99d)"><path fill="#000734" d="M 0.652344 0.65625 L 64.289062 0.65625 L 64.289062 205.238281 L 0.652344 205.238281 Z M 0.652344 0.65625 " fill-opacity="1" fill-rule="nonzero"/></g></g></g></g><g clip-path="url(#0c197f8a29)"><g clip-path="url(#36796f7754)"><g transform="matrix(1, 0, 0, 1, 0, 50)"><g clip-path="url(#7f241475c1)"><g clip-path="url(#ca379da26c)"><g clip-path="url(#bf86d1e572)"><path fill="#000734" d="M 0.652344 0.0546875 L 87.292969 0.0546875 L 87.292969 83.75 L 0.652344 83.75 Z M 0.652344 0.0546875 " fill-opacity="1" fill-rule="nonzero"/></g></g></g></g></g></g><g clip-path="url(#14272a8aae)"><g clip-path="url(#c28145f649)"><g transform="matrix(1, 0, 0, 1, 20, 50)"><g clip-path="url(#ee704e8132)"><g clip-path="url(#0f2a03c645)"><g clip-path="url(#9b96c2b8aa)"><path fill="#000734" d="M 0.402344 0.0546875 L 195.257812 0.0546875 L 195.257812 83.75 L 0.402344 83.75 Z M 0.402344 0.0546875 " fill-opacity="1" fill-rule="nonzero"/></g></g></g></g></g></g><g clip-path="url(#cfea2edd94)"><g clip-path="url(#373bf5fd2b)"><g transform="matrix(1, 0, 0, 1, 177, 171)"><g clip-path="url(#daccfcc542)"><g clip-path="url(#c8d4b230db)"><g clip-path="url(#8b436888fd)"><path fill="#000734" d="M 38.378906 44.222656 L 0.0585938 44.222656 L 0.0585938 0.214844 L 38.378906 0.214844 Z M 38.378906 44.222656 " fill-opacity="1" fill-rule="nonzero"/></g></g></g></g></g></g><g clip-path="url(#7b63180100)"><g transform="matrix(1, 0, 0, 1, 181, 91)"><g clip-path="url(#03f773da9c)"><g clip-path="url(#462978cb0e)"><path fill="#000734" d="M 0.878906 0.902344 L 34.394531 0.902344 L 34.394531 81.816406 L 0.878906 81.816406 Z M 0.878906 0.902344 " fill-opacity="1" fill-rule="nonzero"/></g></g></g></g><g clip-path="url(#4a42135d7b)"><g clip-path="url(#b5e18df062)"><g transform="matrix(1, 0, 0, 1, 171, 131)"><g clip-path="url(#e70c634b60)"><g clip-path="url(#9c5562e34a)"><g clip-path="url(#16ebf366e4)"><path fill="#000734" d="M 0.742188 9.707031 L 10.382812 0.0664062 L 14.117188 3.800781 L 4.472656 13.441406 Z M 0.742188 9.707031 " fill-opacity="1" fill-rule="nonzero"/></g></g></g></g></g></g><g clip-path="url(#2760df62fc)"><g transform="matrix(1, 0, 0, 1, 171, 128)"><g clip-path="url(#219ed010ab)"><g clip-path="url(#211a876051)"><path fill="#000734" d="M 0.484375 0.433594 L 14.117188 0.433594 L 14.117188 5.710938 L 0.484375 5.710938 Z M 0.484375 0.433594 " fill-opacity="1" fill-rule="nonzero"/></g></g></g></g><g clip-path="url(#456ae12479)"><g transform="matrix(1, 0, 0, 1, 177, 137)"><g clip-path="url(#f7b8977c53)"><g clip-path="url(#11fc763898)"><path fill="#000734" d="M 9.667969 0.757812 L 9.667969 35.847656 L 0.0625 35.847656 L 0.0625 0.757812 Z M 9.667969 0.757812 " fill-opacity="1" fill-rule="nonzero"/></g></g></g></g><g clip-path="url(#67dd5ae2b8)"><g clip-path="url(#8170b4b4ba)"><g clip-path="url(#9e88aab75a)"><g transform="matrix(1, 0, 0, 1, 96, 134)"><g clip-path="url(#0b6edba2e8)"><g clip-path="url(#7d854decbe)"><g clip-path="url(#70217df845)"><g clip-path="url(#fd7c114b44)"><path fill="#000734" d="M 121.554688 40.882812 L 40.816406 121.617188 L 0.761719 81.5625 L 81.5 0.828125 Z M 121.554688 40.882812 " fill-opacity="1" fill-rule="nonzero"/></g></g></g></g></g></g></g></g></g></g></svg>